%TF.GenerationSoftware,KiCad,Pcbnew,(6.0.1)*%
%TF.CreationDate,2022-08-15T16:30:33+03:00*%
%TF.ProjectId,Measure,4d656173-7572-4652-9e6b-696361645f70,rev?*%
%TF.SameCoordinates,Original*%
%TF.FileFunction,Legend,Bot*%
%TF.FilePolarity,Positive*%
%FSLAX46Y46*%
G04 Gerber Fmt 4.6, Leading zero omitted, Abs format (unit mm)*
G04 Created by KiCad (PCBNEW (6.0.1)) date 2022-08-15 16:30:33*
%MOMM*%
%LPD*%
G01*
G04 APERTURE LIST*
%ADD10C,0.150000*%
%ADD11C,0.120000*%
G04 APERTURE END LIST*
D10*
%TO.C,C10*%
X169111142Y-100957142D02*
X169158761Y-100909523D01*
X169206380Y-100766666D01*
X169206380Y-100671428D01*
X169158761Y-100528571D01*
X169063523Y-100433333D01*
X168968285Y-100385714D01*
X168777809Y-100338095D01*
X168634952Y-100338095D01*
X168444476Y-100385714D01*
X168349238Y-100433333D01*
X168254000Y-100528571D01*
X168206380Y-100671428D01*
X168206380Y-100766666D01*
X168254000Y-100909523D01*
X168301619Y-100957142D01*
X169206380Y-101909523D02*
X169206380Y-101338095D01*
X169206380Y-101623809D02*
X168206380Y-101623809D01*
X168349238Y-101528571D01*
X168444476Y-101433333D01*
X168492095Y-101338095D01*
X168206380Y-102528571D02*
X168206380Y-102623809D01*
X168254000Y-102719047D01*
X168301619Y-102766666D01*
X168396857Y-102814285D01*
X168587333Y-102861904D01*
X168825428Y-102861904D01*
X169015904Y-102814285D01*
X169111142Y-102766666D01*
X169158761Y-102719047D01*
X169206380Y-102623809D01*
X169206380Y-102528571D01*
X169158761Y-102433333D01*
X169111142Y-102385714D01*
X169015904Y-102338095D01*
X168825428Y-102290476D01*
X168587333Y-102290476D01*
X168396857Y-102338095D01*
X168301619Y-102385714D01*
X168254000Y-102433333D01*
X168206380Y-102528571D01*
%TO.C,C1*%
X172555142Y-67143333D02*
X172602761Y-67095714D01*
X172650380Y-66952857D01*
X172650380Y-66857619D01*
X172602761Y-66714761D01*
X172507523Y-66619523D01*
X172412285Y-66571904D01*
X172221809Y-66524285D01*
X172078952Y-66524285D01*
X171888476Y-66571904D01*
X171793238Y-66619523D01*
X171698000Y-66714761D01*
X171650380Y-66857619D01*
X171650380Y-66952857D01*
X171698000Y-67095714D01*
X171745619Y-67143333D01*
X172650380Y-68095714D02*
X172650380Y-67524285D01*
X172650380Y-67810000D02*
X171650380Y-67810000D01*
X171793238Y-67714761D01*
X171888476Y-67619523D01*
X171936095Y-67524285D01*
%TO.C,R5*%
X172536380Y-97115333D02*
X172060190Y-96782000D01*
X172536380Y-96543904D02*
X171536380Y-96543904D01*
X171536380Y-96924857D01*
X171584000Y-97020095D01*
X171631619Y-97067714D01*
X171726857Y-97115333D01*
X171869714Y-97115333D01*
X171964952Y-97067714D01*
X172012571Y-97020095D01*
X172060190Y-96924857D01*
X172060190Y-96543904D01*
X171536380Y-98020095D02*
X171536380Y-97543904D01*
X172012571Y-97496285D01*
X171964952Y-97543904D01*
X171917333Y-97639142D01*
X171917333Y-97877238D01*
X171964952Y-97972476D01*
X172012571Y-98020095D01*
X172107809Y-98067714D01*
X172345904Y-98067714D01*
X172441142Y-98020095D01*
X172488761Y-97972476D01*
X172536380Y-97877238D01*
X172536380Y-97639142D01*
X172488761Y-97543904D01*
X172441142Y-97496285D01*
%TO.C,C2*%
X151839142Y-84415333D02*
X151886761Y-84367714D01*
X151934380Y-84224857D01*
X151934380Y-84129619D01*
X151886761Y-83986761D01*
X151791523Y-83891523D01*
X151696285Y-83843904D01*
X151505809Y-83796285D01*
X151362952Y-83796285D01*
X151172476Y-83843904D01*
X151077238Y-83891523D01*
X150982000Y-83986761D01*
X150934380Y-84129619D01*
X150934380Y-84224857D01*
X150982000Y-84367714D01*
X151029619Y-84415333D01*
X151029619Y-84796285D02*
X150982000Y-84843904D01*
X150934380Y-84939142D01*
X150934380Y-85177238D01*
X150982000Y-85272476D01*
X151029619Y-85320095D01*
X151124857Y-85367714D01*
X151220095Y-85367714D01*
X151362952Y-85320095D01*
X151934380Y-84748666D01*
X151934380Y-85367714D01*
%TO.C,C13*%
X151839142Y-100957142D02*
X151886761Y-100909523D01*
X151934380Y-100766666D01*
X151934380Y-100671428D01*
X151886761Y-100528571D01*
X151791523Y-100433333D01*
X151696285Y-100385714D01*
X151505809Y-100338095D01*
X151362952Y-100338095D01*
X151172476Y-100385714D01*
X151077238Y-100433333D01*
X150982000Y-100528571D01*
X150934380Y-100671428D01*
X150934380Y-100766666D01*
X150982000Y-100909523D01*
X151029619Y-100957142D01*
X151934380Y-101909523D02*
X151934380Y-101338095D01*
X151934380Y-101623809D02*
X150934380Y-101623809D01*
X151077238Y-101528571D01*
X151172476Y-101433333D01*
X151220095Y-101338095D01*
X150934380Y-102242857D02*
X150934380Y-102861904D01*
X151315333Y-102528571D01*
X151315333Y-102671428D01*
X151362952Y-102766666D01*
X151410571Y-102814285D01*
X151505809Y-102861904D01*
X151743904Y-102861904D01*
X151839142Y-102814285D01*
X151886761Y-102766666D01*
X151934380Y-102671428D01*
X151934380Y-102385714D01*
X151886761Y-102290476D01*
X151839142Y-102242857D01*
%TO.C,C20*%
X158884857Y-69431142D02*
X158932476Y-69478761D01*
X159075333Y-69526380D01*
X159170571Y-69526380D01*
X159313428Y-69478761D01*
X159408666Y-69383523D01*
X159456285Y-69288285D01*
X159503904Y-69097809D01*
X159503904Y-68954952D01*
X159456285Y-68764476D01*
X159408666Y-68669238D01*
X159313428Y-68574000D01*
X159170571Y-68526380D01*
X159075333Y-68526380D01*
X158932476Y-68574000D01*
X158884857Y-68621619D01*
X158503904Y-68621619D02*
X158456285Y-68574000D01*
X158361047Y-68526380D01*
X158122952Y-68526380D01*
X158027714Y-68574000D01*
X157980095Y-68621619D01*
X157932476Y-68716857D01*
X157932476Y-68812095D01*
X157980095Y-68954952D01*
X158551523Y-69526380D01*
X157932476Y-69526380D01*
X157313428Y-68526380D02*
X157218190Y-68526380D01*
X157122952Y-68574000D01*
X157075333Y-68621619D01*
X157027714Y-68716857D01*
X156980095Y-68907333D01*
X156980095Y-69145428D01*
X157027714Y-69335904D01*
X157075333Y-69431142D01*
X157122952Y-69478761D01*
X157218190Y-69526380D01*
X157313428Y-69526380D01*
X157408666Y-69478761D01*
X157456285Y-69431142D01*
X157503904Y-69335904D01*
X157551523Y-69145428D01*
X157551523Y-68907333D01*
X157503904Y-68716857D01*
X157456285Y-68621619D01*
X157408666Y-68574000D01*
X157313428Y-68526380D01*
%TO.C,R9*%
X172536380Y-80097333D02*
X172060190Y-79764000D01*
X172536380Y-79525904D02*
X171536380Y-79525904D01*
X171536380Y-79906857D01*
X171584000Y-80002095D01*
X171631619Y-80049714D01*
X171726857Y-80097333D01*
X171869714Y-80097333D01*
X171964952Y-80049714D01*
X172012571Y-80002095D01*
X172060190Y-79906857D01*
X172060190Y-79525904D01*
X172536380Y-80573523D02*
X172536380Y-80764000D01*
X172488761Y-80859238D01*
X172441142Y-80906857D01*
X172298285Y-81002095D01*
X172107809Y-81049714D01*
X171726857Y-81049714D01*
X171631619Y-81002095D01*
X171584000Y-80954476D01*
X171536380Y-80859238D01*
X171536380Y-80668761D01*
X171584000Y-80573523D01*
X171631619Y-80525904D01*
X171726857Y-80478285D01*
X171964952Y-80478285D01*
X172060190Y-80525904D01*
X172107809Y-80573523D01*
X172155428Y-80668761D01*
X172155428Y-80859238D01*
X172107809Y-80954476D01*
X172060190Y-81002095D01*
X171964952Y-81049714D01*
%TO.C,C19*%
X169111142Y-83939142D02*
X169158761Y-83891523D01*
X169206380Y-83748666D01*
X169206380Y-83653428D01*
X169158761Y-83510571D01*
X169063523Y-83415333D01*
X168968285Y-83367714D01*
X168777809Y-83320095D01*
X168634952Y-83320095D01*
X168444476Y-83367714D01*
X168349238Y-83415333D01*
X168254000Y-83510571D01*
X168206380Y-83653428D01*
X168206380Y-83748666D01*
X168254000Y-83891523D01*
X168301619Y-83939142D01*
X169206380Y-84891523D02*
X169206380Y-84320095D01*
X169206380Y-84605809D02*
X168206380Y-84605809D01*
X168349238Y-84510571D01*
X168444476Y-84415333D01*
X168492095Y-84320095D01*
X169206380Y-85367714D02*
X169206380Y-85558190D01*
X169158761Y-85653428D01*
X169111142Y-85701047D01*
X168968285Y-85796285D01*
X168777809Y-85843904D01*
X168396857Y-85843904D01*
X168301619Y-85796285D01*
X168254000Y-85748666D01*
X168206380Y-85653428D01*
X168206380Y-85462952D01*
X168254000Y-85367714D01*
X168301619Y-85320095D01*
X168396857Y-85272476D01*
X168634952Y-85272476D01*
X168730190Y-85320095D01*
X168777809Y-85367714D01*
X168825428Y-85462952D01*
X168825428Y-85653428D01*
X168777809Y-85748666D01*
X168730190Y-85796285D01*
X168634952Y-85843904D01*
D11*
%TO.C,C10*%
X171169000Y-101338748D02*
X171169000Y-101861252D01*
X169699000Y-101338748D02*
X169699000Y-101861252D01*
%TO.C,C1*%
X173138000Y-66598748D02*
X173138000Y-68021252D01*
X175858000Y-66598748D02*
X175858000Y-68021252D01*
%TO.C,R5*%
X171169000Y-97509064D02*
X171169000Y-97054936D01*
X169699000Y-97509064D02*
X169699000Y-97054936D01*
%TO.C,C2*%
X152427000Y-84320748D02*
X152427000Y-84843252D01*
X153897000Y-84320748D02*
X153897000Y-84843252D01*
%TO.C,C13*%
X153897000Y-101338748D02*
X153897000Y-101861252D01*
X152427000Y-101338748D02*
X152427000Y-101861252D01*
%TO.C,C20*%
X158953252Y-70014000D02*
X157530748Y-70014000D01*
X158953252Y-72734000D02*
X157530748Y-72734000D01*
%TO.C,R9*%
X171169000Y-80491064D02*
X171169000Y-80036936D01*
X169699000Y-80491064D02*
X169699000Y-80036936D01*
%TO.C,C19*%
X169699000Y-84320748D02*
X169699000Y-84843252D01*
X171169000Y-84320748D02*
X171169000Y-84843252D01*
%TD*%
M02*
