%TF.GenerationSoftware,KiCad,Pcbnew,(6.0.1)*%
%TF.CreationDate,2022-06-01T15:28:07+03:00*%
%TF.ProjectId,Measure,4d656173-7572-4652-9e6b-696361645f70,rev?*%
%TF.SameCoordinates,Original*%
%TF.FileFunction,Copper,L2,Inr*%
%TF.FilePolarity,Positive*%
%FSLAX46Y46*%
G04 Gerber Fmt 4.6, Leading zero omitted, Abs format (unit mm)*
G04 Created by KiCad (PCBNEW (6.0.1)) date 2022-06-01 15:28:07*
%MOMM*%
%LPD*%
G01*
G04 APERTURE LIST*
G04 Aperture macros list*
%AMRoundRect*
0 Rectangle with rounded corners*
0 $1 Rounding radius*
0 $2 $3 $4 $5 $6 $7 $8 $9 X,Y pos of 4 corners*
0 Add a 4 corners polygon primitive as box body*
4,1,4,$2,$3,$4,$5,$6,$7,$8,$9,$2,$3,0*
0 Add four circle primitives for the rounded corners*
1,1,$1+$1,$2,$3*
1,1,$1+$1,$4,$5*
1,1,$1+$1,$6,$7*
1,1,$1+$1,$8,$9*
0 Add four rect primitives between the rounded corners*
20,1,$1+$1,$2,$3,$4,$5,0*
20,1,$1+$1,$4,$5,$6,$7,0*
20,1,$1+$1,$6,$7,$8,$9,0*
20,1,$1+$1,$8,$9,$2,$3,0*%
G04 Aperture macros list end*
%TA.AperFunction,ComponentPad*%
%ADD10RoundRect,0.250001X-0.499999X0.499999X-0.499999X-0.499999X0.499999X-0.499999X0.499999X0.499999X0*%
%TD*%
%TA.AperFunction,ComponentPad*%
%ADD11C,1.500000*%
%TD*%
%TA.AperFunction,ComponentPad*%
%ADD12R,1.500000X3.000000*%
%TD*%
%TA.AperFunction,ComponentPad*%
%ADD13O,1.500000X3.000000*%
%TD*%
%TA.AperFunction,ComponentPad*%
%ADD14RoundRect,0.250001X-0.499999X-0.499999X0.499999X-0.499999X0.499999X0.499999X-0.499999X0.499999X0*%
%TD*%
%TA.AperFunction,ViaPad*%
%ADD15C,0.800000*%
%TD*%
G04 APERTURE END LIST*
D10*
%TO.N,+5V*%
%TO.C,J3*%
X180640000Y-73786000D03*
D11*
%TO.N,GND*%
X180640000Y-76786000D03*
%TO.N,+5V*%
X177640000Y-73786000D03*
%TO.N,GND*%
X177640000Y-76786000D03*
%TD*%
D12*
%TO.N,GND*%
%TO.C,U1*%
X167666500Y-66842000D03*
D13*
%TO.N,+5V*%
X165126500Y-66842000D03*
%TO.N,+5VP*%
X160046500Y-66842000D03*
%TO.N,GNDPWR*%
X154966500Y-66842000D03*
%TD*%
D10*
%TO.N,GND*%
%TO.C,J2*%
X180640000Y-91718000D03*
D11*
X180640000Y-94718000D03*
%TO.N,/Voltage_OUT_Measure*%
X177640000Y-91718000D03*
%TO.N,/Voltage_IN_Measure*%
X177640000Y-94718000D03*
%TD*%
D14*
%TO.N,GNDPWR*%
%TO.C,J1*%
X134136000Y-71165000D03*
D11*
X137136000Y-71165000D03*
%TO.N,/Voltage_IN*%
X134136000Y-74165000D03*
%TO.N,/Voltage_OUT*%
X137136000Y-74165000D03*
%TD*%
D15*
%TO.N,+5V*%
X168783000Y-94869000D03*
X171704000Y-64516000D03*
X168783000Y-101219000D03*
X168783000Y-77851000D03*
X168783000Y-84201000D03*
X171704000Y-65786000D03*
%TO.N,GND*%
X168783000Y-85471000D03*
X171704000Y-68580000D03*
X171704000Y-69850000D03*
X168783000Y-76581000D03*
X168783000Y-93599000D03*
X168783000Y-102489000D03*
%TO.N,+5VP*%
X159258000Y-73660000D03*
X155194000Y-81661000D03*
X155067000Y-98679000D03*
X160528000Y-73660000D03*
%TO.N,GNDPWR*%
X138684000Y-81280000D03*
X155067000Y-85471000D03*
X155956000Y-73660000D03*
X155067000Y-102489000D03*
X157226000Y-73660000D03*
X138430000Y-98298000D03*
%TO.N,Net-(C11-Pad1)*%
X168783000Y-97409000D03*
%TO.N,/Voltage_IN_Measure*%
X172085000Y-98679000D03*
%TO.N,Net-(C18-Pad1)*%
X168783000Y-80391000D03*
%TO.N,/Voltage_OUT_Measure*%
X172339000Y-81661000D03*
%TD*%
%TA.AperFunction,Conductor*%
%TO.N,+5VP*%
G36*
X155204722Y-72918002D02*
G01*
X155251215Y-72971658D01*
X155261319Y-73041932D01*
X155230238Y-73108309D01*
X155216960Y-73123056D01*
X155121473Y-73288444D01*
X155062458Y-73470072D01*
X155042496Y-73660000D01*
X155062458Y-73849928D01*
X155121473Y-74031556D01*
X155216960Y-74196944D01*
X155344747Y-74338866D01*
X155499248Y-74451118D01*
X155505276Y-74453802D01*
X155505278Y-74453803D01*
X155667681Y-74526109D01*
X155673712Y-74528794D01*
X155767113Y-74548647D01*
X155854056Y-74567128D01*
X155854061Y-74567128D01*
X155860513Y-74568500D01*
X156051487Y-74568500D01*
X156057939Y-74567128D01*
X156057944Y-74567128D01*
X156144887Y-74548647D01*
X156238288Y-74528794D01*
X156244319Y-74526109D01*
X156406722Y-74453803D01*
X156406724Y-74453802D01*
X156412752Y-74451118D01*
X156516940Y-74375421D01*
X156583806Y-74351563D01*
X156652958Y-74367643D01*
X156665056Y-74375418D01*
X156769248Y-74451118D01*
X156775276Y-74453802D01*
X156775278Y-74453803D01*
X156937681Y-74526109D01*
X156943712Y-74528794D01*
X157037113Y-74548647D01*
X157124056Y-74567128D01*
X157124061Y-74567128D01*
X157130513Y-74568500D01*
X157321487Y-74568500D01*
X157327939Y-74567128D01*
X157327944Y-74567128D01*
X157414887Y-74548647D01*
X157508288Y-74528794D01*
X157514319Y-74526109D01*
X157676722Y-74453803D01*
X157676724Y-74453802D01*
X157682752Y-74451118D01*
X157837253Y-74338866D01*
X157965040Y-74196944D01*
X158060527Y-74031556D01*
X158119542Y-73849928D01*
X158139504Y-73660000D01*
X158119542Y-73470072D01*
X158060527Y-73288444D01*
X157965040Y-73123056D01*
X157951762Y-73108309D01*
X157921045Y-73044301D01*
X157929810Y-72973848D01*
X157975274Y-72919317D01*
X158045399Y-72898000D01*
X160910000Y-72898000D01*
X160978121Y-72918002D01*
X161024614Y-72971658D01*
X161036000Y-73024000D01*
X161036000Y-102998000D01*
X161015998Y-103066121D01*
X160962342Y-103112614D01*
X160910000Y-103124000D01*
X155967666Y-103124000D01*
X155899545Y-103103998D01*
X155853052Y-103050342D01*
X155842948Y-102980068D01*
X155858547Y-102935000D01*
X155898223Y-102866279D01*
X155898224Y-102866278D01*
X155901527Y-102860556D01*
X155960542Y-102678928D01*
X155980504Y-102489000D01*
X155960542Y-102299072D01*
X155901527Y-102117444D01*
X155806040Y-101952056D01*
X155678253Y-101810134D01*
X155523752Y-101697882D01*
X155517724Y-101695198D01*
X155517722Y-101695197D01*
X155355319Y-101622891D01*
X155355318Y-101622891D01*
X155349288Y-101620206D01*
X155255887Y-101600353D01*
X155168944Y-101581872D01*
X155168939Y-101581872D01*
X155162487Y-101580500D01*
X154971513Y-101580500D01*
X154965061Y-101581872D01*
X154965056Y-101581872D01*
X154878113Y-101600353D01*
X154784712Y-101620206D01*
X154778682Y-101622891D01*
X154778681Y-101622891D01*
X154616278Y-101695197D01*
X154616276Y-101695198D01*
X154610248Y-101697882D01*
X154455747Y-101810134D01*
X154327960Y-101952056D01*
X154232473Y-102117444D01*
X154173458Y-102299072D01*
X154153496Y-102489000D01*
X154173458Y-102678928D01*
X154232473Y-102860556D01*
X154235776Y-102866278D01*
X154235777Y-102866279D01*
X154275453Y-102935000D01*
X154292191Y-103003996D01*
X154268970Y-103071087D01*
X154213163Y-103114974D01*
X154166334Y-103124000D01*
X151510000Y-103124000D01*
X151441879Y-103103998D01*
X151395386Y-103050342D01*
X151384000Y-102998000D01*
X151384000Y-85471000D01*
X154153496Y-85471000D01*
X154173458Y-85660928D01*
X154232473Y-85842556D01*
X154327960Y-86007944D01*
X154455747Y-86149866D01*
X154610248Y-86262118D01*
X154616276Y-86264802D01*
X154616278Y-86264803D01*
X154778681Y-86337109D01*
X154784712Y-86339794D01*
X154878112Y-86359647D01*
X154965056Y-86378128D01*
X154965061Y-86378128D01*
X154971513Y-86379500D01*
X155162487Y-86379500D01*
X155168939Y-86378128D01*
X155168944Y-86378128D01*
X155255888Y-86359647D01*
X155349288Y-86339794D01*
X155355319Y-86337109D01*
X155517722Y-86264803D01*
X155517724Y-86264802D01*
X155523752Y-86262118D01*
X155678253Y-86149866D01*
X155806040Y-86007944D01*
X155901527Y-85842556D01*
X155960542Y-85660928D01*
X155980504Y-85471000D01*
X155960542Y-85281072D01*
X155901527Y-85099444D01*
X155806040Y-84934056D01*
X155678253Y-84792134D01*
X155523752Y-84679882D01*
X155517724Y-84677198D01*
X155517722Y-84677197D01*
X155355319Y-84604891D01*
X155355318Y-84604891D01*
X155349288Y-84602206D01*
X155255888Y-84582353D01*
X155168944Y-84563872D01*
X155168939Y-84563872D01*
X155162487Y-84562500D01*
X154971513Y-84562500D01*
X154965061Y-84563872D01*
X154965056Y-84563872D01*
X154878112Y-84582353D01*
X154784712Y-84602206D01*
X154778682Y-84604891D01*
X154778681Y-84604891D01*
X154616278Y-84677197D01*
X154616276Y-84677198D01*
X154610248Y-84679882D01*
X154455747Y-84792134D01*
X154327960Y-84934056D01*
X154232473Y-85099444D01*
X154173458Y-85281072D01*
X154153496Y-85471000D01*
X151384000Y-85471000D01*
X151384000Y-73024000D01*
X151404002Y-72955879D01*
X151457658Y-72909386D01*
X151510000Y-72898000D01*
X155136601Y-72898000D01*
X155204722Y-72918002D01*
G37*
%TD.AperFunction*%
%TD*%
%TA.AperFunction,Conductor*%
%TO.N,+5V*%
G36*
X172408121Y-63520002D02*
G01*
X172454614Y-63573658D01*
X172466000Y-63626000D01*
X172466000Y-67763369D01*
X172445998Y-67831490D01*
X172392342Y-67877983D01*
X172322068Y-67888087D01*
X172265939Y-67865305D01*
X172166094Y-67792763D01*
X172166093Y-67792762D01*
X172160752Y-67788882D01*
X172154724Y-67786198D01*
X172154722Y-67786197D01*
X171992319Y-67713891D01*
X171992318Y-67713891D01*
X171986288Y-67711206D01*
X171892888Y-67691353D01*
X171805944Y-67672872D01*
X171805939Y-67672872D01*
X171799487Y-67671500D01*
X171608513Y-67671500D01*
X171602061Y-67672872D01*
X171602056Y-67672872D01*
X171515112Y-67691353D01*
X171421712Y-67711206D01*
X171415682Y-67713891D01*
X171415681Y-67713891D01*
X171253278Y-67786197D01*
X171253276Y-67786198D01*
X171247248Y-67788882D01*
X171092747Y-67901134D01*
X170964960Y-68043056D01*
X170869473Y-68208444D01*
X170810458Y-68390072D01*
X170790496Y-68580000D01*
X170810458Y-68769928D01*
X170869473Y-68951556D01*
X170964960Y-69116944D01*
X170977338Y-69130691D01*
X171008054Y-69194697D01*
X170999290Y-69265150D01*
X170977339Y-69299307D01*
X170964960Y-69313056D01*
X170869473Y-69478444D01*
X170810458Y-69660072D01*
X170790496Y-69850000D01*
X170810458Y-70039928D01*
X170869473Y-70221556D01*
X170964960Y-70386944D01*
X171092747Y-70528866D01*
X171247248Y-70641118D01*
X171253276Y-70643802D01*
X171253278Y-70643803D01*
X171304551Y-70666631D01*
X171421712Y-70718794D01*
X171515113Y-70738647D01*
X171602056Y-70757128D01*
X171602061Y-70757128D01*
X171608513Y-70758500D01*
X171799487Y-70758500D01*
X171805939Y-70757128D01*
X171805944Y-70757128D01*
X171892887Y-70738647D01*
X171986288Y-70718794D01*
X172103449Y-70666631D01*
X172154722Y-70643803D01*
X172154724Y-70643802D01*
X172160752Y-70641118D01*
X172206568Y-70607831D01*
X172265939Y-70564695D01*
X172332807Y-70540837D01*
X172401958Y-70556917D01*
X172451438Y-70607831D01*
X172466000Y-70666631D01*
X172466000Y-70866000D01*
X181484000Y-70866000D01*
X181552121Y-70886002D01*
X181598614Y-70939658D01*
X181610000Y-70992000D01*
X181610000Y-75686813D01*
X181589998Y-75754934D01*
X181536342Y-75801427D01*
X181466068Y-75811531D01*
X181411729Y-75790026D01*
X181361612Y-75754934D01*
X181271654Y-75691944D01*
X181072076Y-75598880D01*
X180859371Y-75541885D01*
X180640000Y-75522693D01*
X180420629Y-75541885D01*
X180207924Y-75598880D01*
X180114562Y-75642415D01*
X180013334Y-75689618D01*
X180013329Y-75689621D01*
X180008347Y-75691944D01*
X180003840Y-75695100D01*
X180003838Y-75695101D01*
X179832473Y-75815092D01*
X179832470Y-75815094D01*
X179827962Y-75818251D01*
X179672251Y-75973962D01*
X179669094Y-75978470D01*
X179669092Y-75978473D01*
X179619167Y-76049774D01*
X179545944Y-76154347D01*
X179543621Y-76159329D01*
X179543618Y-76159334D01*
X179520252Y-76209444D01*
X179452880Y-76353924D01*
X179395885Y-76566629D01*
X179376693Y-76786000D01*
X179395885Y-77005371D01*
X179452880Y-77218076D01*
X179455205Y-77223061D01*
X179543618Y-77412666D01*
X179543621Y-77412671D01*
X179545944Y-77417653D01*
X179672251Y-77598038D01*
X179827962Y-77753749D01*
X179832471Y-77756906D01*
X179832473Y-77756908D01*
X179860555Y-77776571D01*
X180008346Y-77880056D01*
X180207924Y-77973120D01*
X180420629Y-78030115D01*
X180640000Y-78049307D01*
X180859371Y-78030115D01*
X181072076Y-77973120D01*
X181271654Y-77880056D01*
X181411729Y-77781974D01*
X181479003Y-77759286D01*
X181547863Y-77776571D01*
X181596448Y-77828341D01*
X181610000Y-77885187D01*
X181610000Y-90400187D01*
X181589998Y-90468308D01*
X181536342Y-90514801D01*
X181466068Y-90524905D01*
X181444333Y-90519780D01*
X181301389Y-90472368D01*
X181301387Y-90472368D01*
X181294861Y-90470203D01*
X181288025Y-90469503D01*
X181288022Y-90469502D01*
X181244969Y-90465091D01*
X181190400Y-90459500D01*
X180089600Y-90459500D01*
X180086354Y-90459837D01*
X180086350Y-90459837D01*
X179990693Y-90469762D01*
X179990689Y-90469763D01*
X179983835Y-90470474D01*
X179977299Y-90472655D01*
X179977297Y-90472655D01*
X179850971Y-90514801D01*
X179816055Y-90526450D01*
X179665652Y-90619522D01*
X179540695Y-90744697D01*
X179447885Y-90895262D01*
X179392203Y-91063139D01*
X179381500Y-91167600D01*
X179381500Y-92268400D01*
X179381837Y-92271646D01*
X179381837Y-92271650D01*
X179390399Y-92354162D01*
X179392474Y-92374165D01*
X179448450Y-92541945D01*
X179541522Y-92692348D01*
X179666697Y-92817305D01*
X179672927Y-92821145D01*
X179672928Y-92821146D01*
X179809159Y-92905120D01*
X179817262Y-92910115D01*
X179835762Y-92916251D01*
X179978611Y-92963632D01*
X179978613Y-92963632D01*
X179985139Y-92965797D01*
X179991975Y-92966497D01*
X179991978Y-92966498D01*
X180035031Y-92970909D01*
X180089600Y-92976500D01*
X181190400Y-92976500D01*
X181193646Y-92976163D01*
X181193650Y-92976163D01*
X181289307Y-92966238D01*
X181289311Y-92966237D01*
X181296165Y-92965526D01*
X181302701Y-92963345D01*
X181302703Y-92963345D01*
X181444124Y-92916163D01*
X181515073Y-92913579D01*
X181576157Y-92949762D01*
X181607982Y-93013227D01*
X181610000Y-93035687D01*
X181610000Y-93618813D01*
X181589998Y-93686934D01*
X181536342Y-93733427D01*
X181466068Y-93743531D01*
X181411729Y-93722026D01*
X181361612Y-93686934D01*
X181271654Y-93623944D01*
X181072076Y-93530880D01*
X180859371Y-93473885D01*
X180640000Y-93454693D01*
X180420629Y-93473885D01*
X180207924Y-93530880D01*
X180114562Y-93574415D01*
X180013334Y-93621618D01*
X180013329Y-93621621D01*
X180008347Y-93623944D01*
X180003840Y-93627100D01*
X180003838Y-93627101D01*
X179832473Y-93747092D01*
X179832470Y-93747094D01*
X179827962Y-93750251D01*
X179672251Y-93905962D01*
X179669094Y-93910470D01*
X179669092Y-93910473D01*
X179623014Y-93976279D01*
X179545944Y-94086347D01*
X179543621Y-94091329D01*
X179543618Y-94091334D01*
X179520528Y-94140852D01*
X179452880Y-94285924D01*
X179395885Y-94498629D01*
X179376693Y-94718000D01*
X179395885Y-94937371D01*
X179452880Y-95150076D01*
X179455205Y-95155061D01*
X179543618Y-95344666D01*
X179543621Y-95344671D01*
X179545944Y-95349653D01*
X179672251Y-95530038D01*
X179827962Y-95685749D01*
X179832471Y-95688906D01*
X179832473Y-95688908D01*
X179860555Y-95708571D01*
X180008346Y-95812056D01*
X180207924Y-95905120D01*
X180420629Y-95962115D01*
X180640000Y-95981307D01*
X180859371Y-95962115D01*
X181072076Y-95905120D01*
X181271654Y-95812056D01*
X181411729Y-95713974D01*
X181479003Y-95691286D01*
X181547863Y-95708571D01*
X181596448Y-95760341D01*
X181610000Y-95817187D01*
X181610000Y-102998000D01*
X181589998Y-103066121D01*
X181536342Y-103112614D01*
X181484000Y-103124000D01*
X169683666Y-103124000D01*
X169615545Y-103103998D01*
X169569052Y-103050342D01*
X169558948Y-102980068D01*
X169574547Y-102935000D01*
X169614223Y-102866279D01*
X169614224Y-102866278D01*
X169617527Y-102860556D01*
X169676542Y-102678928D01*
X169696504Y-102489000D01*
X169676542Y-102299072D01*
X169617527Y-102117444D01*
X169522040Y-101952056D01*
X169394253Y-101810134D01*
X169239752Y-101697882D01*
X169233724Y-101695198D01*
X169233722Y-101695197D01*
X169071319Y-101622891D01*
X169071318Y-101622891D01*
X169065288Y-101620206D01*
X168971887Y-101600353D01*
X168884944Y-101581872D01*
X168884939Y-101581872D01*
X168878487Y-101580500D01*
X168687513Y-101580500D01*
X168681061Y-101581872D01*
X168681056Y-101581872D01*
X168594113Y-101600353D01*
X168500712Y-101620206D01*
X168494682Y-101622891D01*
X168494681Y-101622891D01*
X168332278Y-101695197D01*
X168332276Y-101695198D01*
X168326248Y-101697882D01*
X168171747Y-101810134D01*
X168043960Y-101952056D01*
X167948473Y-102117444D01*
X167889458Y-102299072D01*
X167869496Y-102489000D01*
X167889458Y-102678928D01*
X167948473Y-102860556D01*
X167951776Y-102866278D01*
X167951777Y-102866279D01*
X167991453Y-102935000D01*
X168008191Y-103003996D01*
X167984970Y-103071087D01*
X167929163Y-103114974D01*
X167882334Y-103124000D01*
X164210000Y-103124000D01*
X164141879Y-103103998D01*
X164095386Y-103050342D01*
X164084000Y-102998000D01*
X164084000Y-98679000D01*
X171171496Y-98679000D01*
X171191458Y-98868928D01*
X171250473Y-99050556D01*
X171345960Y-99215944D01*
X171473747Y-99357866D01*
X171628248Y-99470118D01*
X171634276Y-99472802D01*
X171634278Y-99472803D01*
X171796681Y-99545109D01*
X171802712Y-99547794D01*
X171896113Y-99567647D01*
X171983056Y-99586128D01*
X171983061Y-99586128D01*
X171989513Y-99587500D01*
X172180487Y-99587500D01*
X172186939Y-99586128D01*
X172186944Y-99586128D01*
X172273887Y-99567647D01*
X172367288Y-99547794D01*
X172373319Y-99545109D01*
X172535722Y-99472803D01*
X172535724Y-99472802D01*
X172541752Y-99470118D01*
X172696253Y-99357866D01*
X172824040Y-99215944D01*
X172919527Y-99050556D01*
X172978542Y-98868928D01*
X172998504Y-98679000D01*
X172978542Y-98489072D01*
X172919527Y-98307444D01*
X172824040Y-98142056D01*
X172778744Y-98091749D01*
X172700675Y-98005045D01*
X172700674Y-98005044D01*
X172696253Y-98000134D01*
X172541752Y-97887882D01*
X172535724Y-97885198D01*
X172535722Y-97885197D01*
X172373319Y-97812891D01*
X172373318Y-97812891D01*
X172367288Y-97810206D01*
X172254721Y-97786279D01*
X172186944Y-97771872D01*
X172186939Y-97771872D01*
X172180487Y-97770500D01*
X171989513Y-97770500D01*
X171983061Y-97771872D01*
X171983056Y-97771872D01*
X171915279Y-97786279D01*
X171802712Y-97810206D01*
X171796682Y-97812891D01*
X171796681Y-97812891D01*
X171634278Y-97885197D01*
X171634276Y-97885198D01*
X171628248Y-97887882D01*
X171473747Y-98000134D01*
X171469326Y-98005044D01*
X171469325Y-98005045D01*
X171391257Y-98091749D01*
X171345960Y-98142056D01*
X171250473Y-98307444D01*
X171191458Y-98489072D01*
X171171496Y-98679000D01*
X164084000Y-98679000D01*
X164084000Y-97409000D01*
X167869496Y-97409000D01*
X167889458Y-97598928D01*
X167948473Y-97780556D01*
X168043960Y-97945944D01*
X168048378Y-97950851D01*
X168048379Y-97950852D01*
X168092753Y-98000134D01*
X168171747Y-98087866D01*
X168326248Y-98200118D01*
X168332276Y-98202802D01*
X168332278Y-98202803D01*
X168494681Y-98275109D01*
X168500712Y-98277794D01*
X168594112Y-98297647D01*
X168681056Y-98316128D01*
X168681061Y-98316128D01*
X168687513Y-98317500D01*
X168878487Y-98317500D01*
X168884939Y-98316128D01*
X168884944Y-98316128D01*
X168971888Y-98297647D01*
X169065288Y-98277794D01*
X169071319Y-98275109D01*
X169233722Y-98202803D01*
X169233724Y-98202802D01*
X169239752Y-98200118D01*
X169394253Y-98087866D01*
X169473247Y-98000134D01*
X169517621Y-97950852D01*
X169517622Y-97950851D01*
X169522040Y-97945944D01*
X169617527Y-97780556D01*
X169676542Y-97598928D01*
X169696504Y-97409000D01*
X169676542Y-97219072D01*
X169617527Y-97037444D01*
X169522040Y-96872056D01*
X169394253Y-96730134D01*
X169239752Y-96617882D01*
X169233724Y-96615198D01*
X169233722Y-96615197D01*
X169071319Y-96542891D01*
X169071318Y-96542891D01*
X169065288Y-96540206D01*
X168971887Y-96520353D01*
X168884944Y-96501872D01*
X168884939Y-96501872D01*
X168878487Y-96500500D01*
X168687513Y-96500500D01*
X168681061Y-96501872D01*
X168681056Y-96501872D01*
X168594112Y-96520353D01*
X168500712Y-96540206D01*
X168494682Y-96542891D01*
X168494681Y-96542891D01*
X168332278Y-96615197D01*
X168332276Y-96615198D01*
X168326248Y-96617882D01*
X168171747Y-96730134D01*
X168043960Y-96872056D01*
X167948473Y-97037444D01*
X167889458Y-97219072D01*
X167869496Y-97409000D01*
X164084000Y-97409000D01*
X164084000Y-94718000D01*
X176376693Y-94718000D01*
X176395885Y-94937371D01*
X176452880Y-95150076D01*
X176455205Y-95155061D01*
X176543618Y-95344666D01*
X176543621Y-95344671D01*
X176545944Y-95349653D01*
X176672251Y-95530038D01*
X176827962Y-95685749D01*
X176832471Y-95688906D01*
X176832473Y-95688908D01*
X176860555Y-95708571D01*
X177008346Y-95812056D01*
X177207924Y-95905120D01*
X177420629Y-95962115D01*
X177640000Y-95981307D01*
X177859371Y-95962115D01*
X178072076Y-95905120D01*
X178271654Y-95812056D01*
X178419445Y-95708571D01*
X178447527Y-95688908D01*
X178447529Y-95688906D01*
X178452038Y-95685749D01*
X178607749Y-95530038D01*
X178734056Y-95349653D01*
X178736379Y-95344671D01*
X178736382Y-95344666D01*
X178824795Y-95155061D01*
X178827120Y-95150076D01*
X178884115Y-94937371D01*
X178903307Y-94718000D01*
X178884115Y-94498629D01*
X178827120Y-94285924D01*
X178759472Y-94140852D01*
X178736382Y-94091334D01*
X178736379Y-94091329D01*
X178734056Y-94086347D01*
X178656986Y-93976279D01*
X178610908Y-93910473D01*
X178610906Y-93910470D01*
X178607749Y-93905962D01*
X178452038Y-93750251D01*
X178271654Y-93623944D01*
X178072076Y-93530880D01*
X177859371Y-93473885D01*
X177640000Y-93454693D01*
X177420629Y-93473885D01*
X177207924Y-93530880D01*
X177114562Y-93574415D01*
X177013334Y-93621618D01*
X177013329Y-93621621D01*
X177008347Y-93623944D01*
X177003840Y-93627100D01*
X177003838Y-93627101D01*
X176832473Y-93747092D01*
X176832470Y-93747094D01*
X176827962Y-93750251D01*
X176672251Y-93905962D01*
X176669094Y-93910470D01*
X176669092Y-93910473D01*
X176623014Y-93976279D01*
X176545944Y-94086347D01*
X176543621Y-94091329D01*
X176543618Y-94091334D01*
X176520528Y-94140852D01*
X176452880Y-94285924D01*
X176395885Y-94498629D01*
X176376693Y-94718000D01*
X164084000Y-94718000D01*
X164084000Y-93599000D01*
X167869496Y-93599000D01*
X167870186Y-93605565D01*
X167885803Y-93754148D01*
X167889458Y-93788928D01*
X167948473Y-93970556D01*
X168043960Y-94135944D01*
X168171747Y-94277866D01*
X168326248Y-94390118D01*
X168332276Y-94392802D01*
X168332278Y-94392803D01*
X168494681Y-94465109D01*
X168500712Y-94467794D01*
X168594113Y-94487647D01*
X168681056Y-94506128D01*
X168681061Y-94506128D01*
X168687513Y-94507500D01*
X168878487Y-94507500D01*
X168884939Y-94506128D01*
X168884944Y-94506128D01*
X168971888Y-94487647D01*
X169065288Y-94467794D01*
X169071319Y-94465109D01*
X169233722Y-94392803D01*
X169233724Y-94392802D01*
X169239752Y-94390118D01*
X169394253Y-94277866D01*
X169522040Y-94135944D01*
X169617527Y-93970556D01*
X169676542Y-93788928D01*
X169680198Y-93754148D01*
X169695814Y-93605565D01*
X169696504Y-93599000D01*
X169676542Y-93409072D01*
X169617527Y-93227444D01*
X169522040Y-93062056D01*
X169449334Y-92981307D01*
X169398675Y-92925045D01*
X169398674Y-92925044D01*
X169394253Y-92920134D01*
X169252722Y-92817305D01*
X169245094Y-92811763D01*
X169245093Y-92811762D01*
X169239752Y-92807882D01*
X169233724Y-92805198D01*
X169233722Y-92805197D01*
X169071319Y-92732891D01*
X169071318Y-92732891D01*
X169065288Y-92730206D01*
X168971888Y-92710353D01*
X168884944Y-92691872D01*
X168884939Y-92691872D01*
X168878487Y-92690500D01*
X168687513Y-92690500D01*
X168681061Y-92691872D01*
X168681056Y-92691872D01*
X168594113Y-92710353D01*
X168500712Y-92730206D01*
X168494682Y-92732891D01*
X168494681Y-92732891D01*
X168332278Y-92805197D01*
X168332276Y-92805198D01*
X168326248Y-92807882D01*
X168320907Y-92811762D01*
X168320906Y-92811763D01*
X168313278Y-92817305D01*
X168171747Y-92920134D01*
X168167326Y-92925044D01*
X168167325Y-92925045D01*
X168116667Y-92981307D01*
X168043960Y-93062056D01*
X167948473Y-93227444D01*
X167889458Y-93409072D01*
X167869496Y-93599000D01*
X164084000Y-93599000D01*
X164084000Y-91718000D01*
X176376693Y-91718000D01*
X176395885Y-91937371D01*
X176452880Y-92150076D01*
X176455205Y-92155061D01*
X176543618Y-92344666D01*
X176543621Y-92344671D01*
X176545944Y-92349653D01*
X176672251Y-92530038D01*
X176827962Y-92685749D01*
X176832471Y-92688906D01*
X176832473Y-92688908D01*
X176836706Y-92691872D01*
X177008346Y-92812056D01*
X177207924Y-92905120D01*
X177420629Y-92962115D01*
X177640000Y-92981307D01*
X177859371Y-92962115D01*
X178072076Y-92905120D01*
X178271654Y-92812056D01*
X178443294Y-92691872D01*
X178447527Y-92688908D01*
X178447529Y-92688906D01*
X178452038Y-92685749D01*
X178607749Y-92530038D01*
X178734056Y-92349653D01*
X178736379Y-92344671D01*
X178736382Y-92344666D01*
X178824795Y-92155061D01*
X178827120Y-92150076D01*
X178884115Y-91937371D01*
X178903307Y-91718000D01*
X178884115Y-91498629D01*
X178827120Y-91285924D01*
X178770454Y-91164402D01*
X178736382Y-91091334D01*
X178736379Y-91091329D01*
X178734056Y-91086347D01*
X178730899Y-91081838D01*
X178610908Y-90910473D01*
X178610906Y-90910470D01*
X178607749Y-90905962D01*
X178452038Y-90750251D01*
X178444107Y-90744697D01*
X178372759Y-90694739D01*
X178271654Y-90623944D01*
X178072076Y-90530880D01*
X177859371Y-90473885D01*
X177640000Y-90454693D01*
X177420629Y-90473885D01*
X177207924Y-90530880D01*
X177114562Y-90574415D01*
X177013334Y-90621618D01*
X177013329Y-90621621D01*
X177008347Y-90623944D01*
X177003840Y-90627100D01*
X177003838Y-90627101D01*
X176832473Y-90747092D01*
X176832470Y-90747094D01*
X176827962Y-90750251D01*
X176672251Y-90905962D01*
X176669094Y-90910470D01*
X176669092Y-90910473D01*
X176549101Y-91081838D01*
X176545944Y-91086347D01*
X176543621Y-91091329D01*
X176543618Y-91091334D01*
X176509546Y-91164402D01*
X176452880Y-91285924D01*
X176395885Y-91498629D01*
X176376693Y-91718000D01*
X164084000Y-91718000D01*
X164084000Y-85471000D01*
X167869496Y-85471000D01*
X167889458Y-85660928D01*
X167948473Y-85842556D01*
X168043960Y-86007944D01*
X168171747Y-86149866D01*
X168326248Y-86262118D01*
X168332276Y-86264802D01*
X168332278Y-86264803D01*
X168494681Y-86337109D01*
X168500712Y-86339794D01*
X168594112Y-86359647D01*
X168681056Y-86378128D01*
X168681061Y-86378128D01*
X168687513Y-86379500D01*
X168878487Y-86379500D01*
X168884939Y-86378128D01*
X168884944Y-86378128D01*
X168971888Y-86359647D01*
X169065288Y-86339794D01*
X169071319Y-86337109D01*
X169233722Y-86264803D01*
X169233724Y-86264802D01*
X169239752Y-86262118D01*
X169394253Y-86149866D01*
X169522040Y-86007944D01*
X169617527Y-85842556D01*
X169676542Y-85660928D01*
X169696504Y-85471000D01*
X169676542Y-85281072D01*
X169617527Y-85099444D01*
X169522040Y-84934056D01*
X169394253Y-84792134D01*
X169239752Y-84679882D01*
X169233724Y-84677198D01*
X169233722Y-84677197D01*
X169071319Y-84604891D01*
X169071318Y-84604891D01*
X169065288Y-84602206D01*
X168971888Y-84582353D01*
X168884944Y-84563872D01*
X168884939Y-84563872D01*
X168878487Y-84562500D01*
X168687513Y-84562500D01*
X168681061Y-84563872D01*
X168681056Y-84563872D01*
X168594112Y-84582353D01*
X168500712Y-84602206D01*
X168494682Y-84604891D01*
X168494681Y-84604891D01*
X168332278Y-84677197D01*
X168332276Y-84677198D01*
X168326248Y-84679882D01*
X168171747Y-84792134D01*
X168043960Y-84934056D01*
X167948473Y-85099444D01*
X167889458Y-85281072D01*
X167869496Y-85471000D01*
X164084000Y-85471000D01*
X164084000Y-81661000D01*
X171425496Y-81661000D01*
X171445458Y-81850928D01*
X171504473Y-82032556D01*
X171599960Y-82197944D01*
X171727747Y-82339866D01*
X171882248Y-82452118D01*
X171888276Y-82454802D01*
X171888278Y-82454803D01*
X172050681Y-82527109D01*
X172056712Y-82529794D01*
X172150112Y-82549647D01*
X172237056Y-82568128D01*
X172237061Y-82568128D01*
X172243513Y-82569500D01*
X172434487Y-82569500D01*
X172440939Y-82568128D01*
X172440944Y-82568128D01*
X172527887Y-82549647D01*
X172621288Y-82529794D01*
X172627319Y-82527109D01*
X172789722Y-82454803D01*
X172789724Y-82454802D01*
X172795752Y-82452118D01*
X172950253Y-82339866D01*
X173078040Y-82197944D01*
X173173527Y-82032556D01*
X173232542Y-81850928D01*
X173252504Y-81661000D01*
X173232542Y-81471072D01*
X173173527Y-81289444D01*
X173078040Y-81124056D01*
X173032744Y-81073749D01*
X172954675Y-80987045D01*
X172954674Y-80987044D01*
X172950253Y-80982134D01*
X172795752Y-80869882D01*
X172789724Y-80867198D01*
X172789722Y-80867197D01*
X172627319Y-80794891D01*
X172627318Y-80794891D01*
X172621288Y-80792206D01*
X172508721Y-80768279D01*
X172440944Y-80753872D01*
X172440939Y-80753872D01*
X172434487Y-80752500D01*
X172243513Y-80752500D01*
X172237061Y-80753872D01*
X172237056Y-80753872D01*
X172169279Y-80768279D01*
X172056712Y-80792206D01*
X172050682Y-80794891D01*
X172050681Y-80794891D01*
X171888278Y-80867197D01*
X171888276Y-80867198D01*
X171882248Y-80869882D01*
X171727747Y-80982134D01*
X171723326Y-80987044D01*
X171723325Y-80987045D01*
X171645257Y-81073749D01*
X171599960Y-81124056D01*
X171504473Y-81289444D01*
X171445458Y-81471072D01*
X171425496Y-81661000D01*
X164084000Y-81661000D01*
X164084000Y-80391000D01*
X167869496Y-80391000D01*
X167889458Y-80580928D01*
X167948473Y-80762556D01*
X168043960Y-80927944D01*
X168048378Y-80932851D01*
X168048379Y-80932852D01*
X168092753Y-80982134D01*
X168171747Y-81069866D01*
X168326248Y-81182118D01*
X168332276Y-81184802D01*
X168332278Y-81184803D01*
X168494681Y-81257109D01*
X168500712Y-81259794D01*
X168594113Y-81279647D01*
X168681056Y-81298128D01*
X168681061Y-81298128D01*
X168687513Y-81299500D01*
X168878487Y-81299500D01*
X168884939Y-81298128D01*
X168884944Y-81298128D01*
X168971888Y-81279647D01*
X169065288Y-81259794D01*
X169071319Y-81257109D01*
X169233722Y-81184803D01*
X169233724Y-81184802D01*
X169239752Y-81182118D01*
X169394253Y-81069866D01*
X169473247Y-80982134D01*
X169517621Y-80932852D01*
X169517622Y-80932851D01*
X169522040Y-80927944D01*
X169617527Y-80762556D01*
X169676542Y-80580928D01*
X169696504Y-80391000D01*
X169676542Y-80201072D01*
X169617527Y-80019444D01*
X169522040Y-79854056D01*
X169394253Y-79712134D01*
X169239752Y-79599882D01*
X169233724Y-79597198D01*
X169233722Y-79597197D01*
X169071319Y-79524891D01*
X169071318Y-79524891D01*
X169065288Y-79522206D01*
X168971887Y-79502353D01*
X168884944Y-79483872D01*
X168884939Y-79483872D01*
X168878487Y-79482500D01*
X168687513Y-79482500D01*
X168681061Y-79483872D01*
X168681056Y-79483872D01*
X168594113Y-79502353D01*
X168500712Y-79522206D01*
X168494682Y-79524891D01*
X168494681Y-79524891D01*
X168332278Y-79597197D01*
X168332276Y-79597198D01*
X168326248Y-79599882D01*
X168171747Y-79712134D01*
X168043960Y-79854056D01*
X167948473Y-80019444D01*
X167889458Y-80201072D01*
X167869496Y-80391000D01*
X164084000Y-80391000D01*
X164084000Y-76581000D01*
X167869496Y-76581000D01*
X167889458Y-76770928D01*
X167948473Y-76952556D01*
X168043960Y-77117944D01*
X168171747Y-77259866D01*
X168326248Y-77372118D01*
X168332276Y-77374802D01*
X168332278Y-77374803D01*
X168438649Y-77422162D01*
X168500712Y-77449794D01*
X168594113Y-77469647D01*
X168681056Y-77488128D01*
X168681061Y-77488128D01*
X168687513Y-77489500D01*
X168878487Y-77489500D01*
X168884939Y-77488128D01*
X168884944Y-77488128D01*
X168971887Y-77469647D01*
X169065288Y-77449794D01*
X169127351Y-77422162D01*
X169233722Y-77374803D01*
X169233724Y-77374802D01*
X169239752Y-77372118D01*
X169394253Y-77259866D01*
X169522040Y-77117944D01*
X169617527Y-76952556D01*
X169671645Y-76786000D01*
X176376693Y-76786000D01*
X176395885Y-77005371D01*
X176452880Y-77218076D01*
X176455205Y-77223061D01*
X176543618Y-77412666D01*
X176543621Y-77412671D01*
X176545944Y-77417653D01*
X176672251Y-77598038D01*
X176827962Y-77753749D01*
X176832471Y-77756906D01*
X176832473Y-77756908D01*
X176860555Y-77776571D01*
X177008346Y-77880056D01*
X177207924Y-77973120D01*
X177420629Y-78030115D01*
X177640000Y-78049307D01*
X177859371Y-78030115D01*
X178072076Y-77973120D01*
X178271654Y-77880056D01*
X178419445Y-77776571D01*
X178447527Y-77756908D01*
X178447529Y-77756906D01*
X178452038Y-77753749D01*
X178607749Y-77598038D01*
X178734056Y-77417653D01*
X178736379Y-77412671D01*
X178736382Y-77412666D01*
X178824795Y-77223061D01*
X178827120Y-77218076D01*
X178884115Y-77005371D01*
X178903307Y-76786000D01*
X178884115Y-76566629D01*
X178827120Y-76353924D01*
X178759748Y-76209444D01*
X178736382Y-76159334D01*
X178736379Y-76159329D01*
X178734056Y-76154347D01*
X178660833Y-76049774D01*
X178610908Y-75978473D01*
X178610906Y-75978470D01*
X178607749Y-75973962D01*
X178452038Y-75818251D01*
X178271654Y-75691944D01*
X178072076Y-75598880D01*
X177859371Y-75541885D01*
X177640000Y-75522693D01*
X177420629Y-75541885D01*
X177207924Y-75598880D01*
X177114562Y-75642415D01*
X177013334Y-75689618D01*
X177013329Y-75689621D01*
X177008347Y-75691944D01*
X177003840Y-75695100D01*
X177003838Y-75695101D01*
X176832473Y-75815092D01*
X176832470Y-75815094D01*
X176827962Y-75818251D01*
X176672251Y-75973962D01*
X176669094Y-75978470D01*
X176669092Y-75978473D01*
X176619167Y-76049774D01*
X176545944Y-76154347D01*
X176543621Y-76159329D01*
X176543618Y-76159334D01*
X176520252Y-76209444D01*
X176452880Y-76353924D01*
X176395885Y-76566629D01*
X176376693Y-76786000D01*
X169671645Y-76786000D01*
X169676542Y-76770928D01*
X169696504Y-76581000D01*
X169676542Y-76391072D01*
X169617527Y-76209444D01*
X169522040Y-76044056D01*
X169394253Y-75902134D01*
X169284162Y-75822148D01*
X169245094Y-75793763D01*
X169245093Y-75793762D01*
X169239752Y-75789882D01*
X169233724Y-75787198D01*
X169233722Y-75787197D01*
X169071319Y-75714891D01*
X169071318Y-75714891D01*
X169065288Y-75712206D01*
X168959025Y-75689619D01*
X168884944Y-75673872D01*
X168884939Y-75673872D01*
X168878487Y-75672500D01*
X168687513Y-75672500D01*
X168681061Y-75673872D01*
X168681056Y-75673872D01*
X168606975Y-75689619D01*
X168500712Y-75712206D01*
X168494682Y-75714891D01*
X168494681Y-75714891D01*
X168332278Y-75787197D01*
X168332276Y-75787198D01*
X168326248Y-75789882D01*
X168320907Y-75793762D01*
X168320906Y-75793763D01*
X168281838Y-75822148D01*
X168171747Y-75902134D01*
X168043960Y-76044056D01*
X167948473Y-76209444D01*
X167889458Y-76391072D01*
X167869496Y-76581000D01*
X164084000Y-76581000D01*
X164084000Y-68390134D01*
X166408000Y-68390134D01*
X166414755Y-68452316D01*
X166465885Y-68588705D01*
X166553239Y-68705261D01*
X166669795Y-68792615D01*
X166806184Y-68843745D01*
X166868366Y-68850500D01*
X168464634Y-68850500D01*
X168526816Y-68843745D01*
X168663205Y-68792615D01*
X168779761Y-68705261D01*
X168867115Y-68588705D01*
X168918245Y-68452316D01*
X168925000Y-68390134D01*
X168925000Y-65293866D01*
X168918245Y-65231684D01*
X168867115Y-65095295D01*
X168779761Y-64978739D01*
X168663205Y-64891385D01*
X168526816Y-64840255D01*
X168464634Y-64833500D01*
X166868366Y-64833500D01*
X166806184Y-64840255D01*
X166669795Y-64891385D01*
X166553239Y-64978739D01*
X166465885Y-65095295D01*
X166414755Y-65231684D01*
X166408000Y-65293866D01*
X166408000Y-68390134D01*
X164084000Y-68390134D01*
X164084000Y-63626000D01*
X164104002Y-63557879D01*
X164157658Y-63511386D01*
X164210000Y-63500000D01*
X172340000Y-63500000D01*
X172408121Y-63520002D01*
G37*
%TD.AperFunction*%
%TD*%
M02*
