M48
; DRILL file {KiCad (6.0.1)} date Wed Jun  1 15:28:09 2022
; FORMAT={-:-/ absolute / metric / decimal}
; #@! TF.CreationDate,2022-06-01T15:28:09+03:00
; #@! TF.GenerationSoftware,Kicad,Pcbnew,(6.0.1)
; #@! TF.FileFunction,Plated,1,4,PTH
FMAT,2
METRIC
; #@! TA.AperFunction,Plated,PTH,ViaDrill
T1C0.400
; #@! TA.AperFunction,Plated,PTH,ComponentDrill
T2C1.000
; #@! TA.AperFunction,Plated,PTH,ComponentDrill
T3C1.020
%
G90
G05
T1
X138.43Y-98.298
X138.684Y-81.28
X155.067Y-85.471
X155.067Y-98.679
X155.067Y-102.489
X155.194Y-81.661
X155.956Y-73.66
X157.226Y-73.66
X159.258Y-73.66
X160.528Y-73.66
X168.783Y-76.581
X168.783Y-77.851
X168.783Y-80.391
X168.783Y-84.201
X168.783Y-85.471
X168.783Y-93.599
X168.783Y-94.869
X168.783Y-97.409
X168.783Y-101.219
X168.783Y-102.489
X171.704Y-64.516
X171.704Y-65.786
X171.704Y-68.58
X171.704Y-69.85
X172.085Y-98.679
X172.339Y-81.661
T2
X154.966Y-66.842
X160.046Y-66.842
X165.126Y-66.842
X167.666Y-66.842
T3
X134.136Y-71.165
X134.136Y-74.165
X137.136Y-71.165
X137.136Y-74.165
X177.64Y-73.786
X177.64Y-76.786
X177.64Y-91.718
X177.64Y-94.718
X180.64Y-73.786
X180.64Y-76.786
X180.64Y-91.718
X180.64Y-94.718
T0
M30
