%TF.GenerationSoftware,KiCad,Pcbnew,(6.0.1)*%
%TF.CreationDate,2022-06-01T15:28:07+03:00*%
%TF.ProjectId,Measure,4d656173-7572-4652-9e6b-696361645f70,rev?*%
%TF.SameCoordinates,Original*%
%TF.FileFunction,Copper,L3,Inr*%
%TF.FilePolarity,Positive*%
%FSLAX46Y46*%
G04 Gerber Fmt 4.6, Leading zero omitted, Abs format (unit mm)*
G04 Created by KiCad (PCBNEW (6.0.1)) date 2022-06-01 15:28:07*
%MOMM*%
%LPD*%
G01*
G04 APERTURE LIST*
G04 Aperture macros list*
%AMRoundRect*
0 Rectangle with rounded corners*
0 $1 Rounding radius*
0 $2 $3 $4 $5 $6 $7 $8 $9 X,Y pos of 4 corners*
0 Add a 4 corners polygon primitive as box body*
4,1,4,$2,$3,$4,$5,$6,$7,$8,$9,$2,$3,0*
0 Add four circle primitives for the rounded corners*
1,1,$1+$1,$2,$3*
1,1,$1+$1,$4,$5*
1,1,$1+$1,$6,$7*
1,1,$1+$1,$8,$9*
0 Add four rect primitives between the rounded corners*
20,1,$1+$1,$2,$3,$4,$5,0*
20,1,$1+$1,$4,$5,$6,$7,0*
20,1,$1+$1,$6,$7,$8,$9,0*
20,1,$1+$1,$8,$9,$2,$3,0*%
G04 Aperture macros list end*
%TA.AperFunction,ComponentPad*%
%ADD10RoundRect,0.250001X-0.499999X0.499999X-0.499999X-0.499999X0.499999X-0.499999X0.499999X0.499999X0*%
%TD*%
%TA.AperFunction,ComponentPad*%
%ADD11C,1.500000*%
%TD*%
%TA.AperFunction,ComponentPad*%
%ADD12R,1.500000X3.000000*%
%TD*%
%TA.AperFunction,ComponentPad*%
%ADD13O,1.500000X3.000000*%
%TD*%
%TA.AperFunction,ComponentPad*%
%ADD14RoundRect,0.250001X-0.499999X-0.499999X0.499999X-0.499999X0.499999X0.499999X-0.499999X0.499999X0*%
%TD*%
%TA.AperFunction,ViaPad*%
%ADD15C,0.800000*%
%TD*%
G04 APERTURE END LIST*
D10*
%TO.N,+5V*%
%TO.C,J3*%
X180640000Y-73786000D03*
D11*
%TO.N,GND*%
X180640000Y-76786000D03*
%TO.N,+5V*%
X177640000Y-73786000D03*
%TO.N,GND*%
X177640000Y-76786000D03*
%TD*%
D12*
%TO.N,GND*%
%TO.C,U1*%
X167666500Y-66842000D03*
D13*
%TO.N,+5V*%
X165126500Y-66842000D03*
%TO.N,+5VP*%
X160046500Y-66842000D03*
%TO.N,GNDPWR*%
X154966500Y-66842000D03*
%TD*%
D10*
%TO.N,GND*%
%TO.C,J2*%
X180640000Y-91718000D03*
D11*
X180640000Y-94718000D03*
%TO.N,/Voltage_OUT_Measure*%
X177640000Y-91718000D03*
%TO.N,/Voltage_IN_Measure*%
X177640000Y-94718000D03*
%TD*%
D14*
%TO.N,GNDPWR*%
%TO.C,J1*%
X134136000Y-71165000D03*
D11*
X137136000Y-71165000D03*
%TO.N,/Voltage_IN*%
X134136000Y-74165000D03*
%TO.N,/Voltage_OUT*%
X137136000Y-74165000D03*
%TD*%
D15*
%TO.N,+5V*%
X168783000Y-94869000D03*
X171704000Y-64516000D03*
X168783000Y-101219000D03*
X168783000Y-77851000D03*
X168783000Y-84201000D03*
X171704000Y-65786000D03*
%TO.N,GND*%
X168783000Y-85471000D03*
X171704000Y-68580000D03*
X171704000Y-69850000D03*
X168783000Y-76581000D03*
X168783000Y-93599000D03*
X168783000Y-102489000D03*
%TO.N,+5VP*%
X159258000Y-73660000D03*
X155194000Y-81661000D03*
X155067000Y-98679000D03*
X160528000Y-73660000D03*
%TO.N,GNDPWR*%
X138684000Y-81280000D03*
X155067000Y-85471000D03*
X155956000Y-73660000D03*
X155067000Y-102489000D03*
X157226000Y-73660000D03*
X138430000Y-98298000D03*
%TO.N,Net-(C11-Pad1)*%
X168783000Y-97409000D03*
%TO.N,/Voltage_IN_Measure*%
X172085000Y-98679000D03*
%TO.N,Net-(C18-Pad1)*%
X168783000Y-80391000D03*
%TO.N,/Voltage_OUT_Measure*%
X172339000Y-81661000D03*
%TD*%
%TA.AperFunction,Conductor*%
%TO.N,GNDPWR*%
G36*
X160978121Y-63520002D02*
G01*
X161024614Y-63573658D01*
X161036000Y-63626000D01*
X161036000Y-65004098D01*
X161015998Y-65072219D01*
X160962342Y-65118712D01*
X160892068Y-65128816D01*
X160839724Y-65108679D01*
X160659898Y-64987841D01*
X160659895Y-64987839D01*
X160655238Y-64984710D01*
X160449533Y-64894412D01*
X160444082Y-64893103D01*
X160444078Y-64893102D01*
X160236546Y-64843278D01*
X160236545Y-64843278D01*
X160231089Y-64841968D01*
X160138904Y-64836653D01*
X160012417Y-64829360D01*
X160012414Y-64829360D01*
X160006810Y-64829037D01*
X159783785Y-64856025D01*
X159569065Y-64922082D01*
X159564085Y-64924652D01*
X159564081Y-64924654D01*
X159410053Y-65004154D01*
X159369436Y-65025118D01*
X159191208Y-65161877D01*
X159040015Y-65328036D01*
X159037037Y-65332783D01*
X159037035Y-65332786D01*
X158996956Y-65396678D01*
X158920636Y-65518344D01*
X158836844Y-65726783D01*
X158791287Y-65946767D01*
X158791021Y-65951378D01*
X158791021Y-65951379D01*
X158790607Y-65958569D01*
X158788000Y-66003775D01*
X158788000Y-67648999D01*
X158802883Y-67815762D01*
X158862163Y-68032451D01*
X158958878Y-68235218D01*
X159089971Y-68417654D01*
X159094003Y-68421561D01*
X159231216Y-68554530D01*
X159251299Y-68573992D01*
X159437762Y-68699290D01*
X159643467Y-68789588D01*
X159648918Y-68790897D01*
X159648922Y-68790898D01*
X159849773Y-68839118D01*
X159861911Y-68842032D01*
X159945975Y-68846879D01*
X160080583Y-68854640D01*
X160080586Y-68854640D01*
X160086190Y-68854963D01*
X160309215Y-68827975D01*
X160523935Y-68761918D01*
X160528915Y-68759348D01*
X160528919Y-68759346D01*
X160718581Y-68661454D01*
X160718582Y-68661454D01*
X160723564Y-68658882D01*
X160773710Y-68620404D01*
X160833296Y-68574682D01*
X160899517Y-68549082D01*
X160969065Y-68563347D01*
X161019861Y-68612948D01*
X161036000Y-68674645D01*
X161036000Y-72697676D01*
X161015998Y-72765797D01*
X160962342Y-72812290D01*
X160892068Y-72822394D01*
X160858751Y-72812783D01*
X160816319Y-72793891D01*
X160816318Y-72793891D01*
X160810288Y-72791206D01*
X160690749Y-72765797D01*
X160629944Y-72752872D01*
X160629939Y-72752872D01*
X160623487Y-72751500D01*
X160432513Y-72751500D01*
X160426061Y-72752872D01*
X160426056Y-72752872D01*
X160365251Y-72765797D01*
X160245712Y-72791206D01*
X160239682Y-72793891D01*
X160239681Y-72793891D01*
X160077278Y-72866197D01*
X160077276Y-72866198D01*
X160071248Y-72868882D01*
X159967060Y-72944579D01*
X159900194Y-72968437D01*
X159831042Y-72952357D01*
X159818944Y-72944582D01*
X159714752Y-72868882D01*
X159708724Y-72866198D01*
X159708722Y-72866197D01*
X159546319Y-72793891D01*
X159546318Y-72793891D01*
X159540288Y-72791206D01*
X159420749Y-72765797D01*
X159359944Y-72752872D01*
X159359939Y-72752872D01*
X159353487Y-72751500D01*
X159162513Y-72751500D01*
X159156061Y-72752872D01*
X159156056Y-72752872D01*
X159095251Y-72765797D01*
X158975712Y-72791206D01*
X158969682Y-72793891D01*
X158969681Y-72793891D01*
X158807278Y-72866197D01*
X158807276Y-72866198D01*
X158801248Y-72868882D01*
X158646747Y-72981134D01*
X158518960Y-73123056D01*
X158423473Y-73288444D01*
X158364458Y-73470072D01*
X158363768Y-73476633D01*
X158363768Y-73476635D01*
X158357283Y-73538334D01*
X158344496Y-73660000D01*
X158345186Y-73666565D01*
X158352161Y-73732924D01*
X158364458Y-73849928D01*
X158423473Y-74031556D01*
X158518960Y-74196944D01*
X158646747Y-74338866D01*
X158801248Y-74451118D01*
X158807276Y-74453802D01*
X158807278Y-74453803D01*
X158927249Y-74507217D01*
X158975712Y-74528794D01*
X159069113Y-74548647D01*
X159156056Y-74567128D01*
X159156061Y-74567128D01*
X159162513Y-74568500D01*
X159353487Y-74568500D01*
X159359939Y-74567128D01*
X159359944Y-74567128D01*
X159446887Y-74548647D01*
X159540288Y-74528794D01*
X159588751Y-74507217D01*
X159708722Y-74453803D01*
X159708724Y-74453802D01*
X159714752Y-74451118D01*
X159818940Y-74375421D01*
X159885806Y-74351563D01*
X159954958Y-74367643D01*
X159967056Y-74375418D01*
X160071248Y-74451118D01*
X160077276Y-74453802D01*
X160077278Y-74453803D01*
X160197249Y-74507217D01*
X160245712Y-74528794D01*
X160339113Y-74548647D01*
X160426056Y-74567128D01*
X160426061Y-74567128D01*
X160432513Y-74568500D01*
X160623487Y-74568500D01*
X160629939Y-74567128D01*
X160629944Y-74567128D01*
X160716887Y-74548647D01*
X160810288Y-74528794D01*
X160858751Y-74507217D01*
X160929118Y-74497783D01*
X160993415Y-74527890D01*
X161031229Y-74587978D01*
X161036000Y-74622324D01*
X161036000Y-103252000D01*
X161015998Y-103320121D01*
X160962342Y-103366614D01*
X160910000Y-103378000D01*
X131190000Y-103378000D01*
X131121879Y-103357998D01*
X131075386Y-103304342D01*
X131064000Y-103252000D01*
X131064000Y-98679000D01*
X154153496Y-98679000D01*
X154173458Y-98868928D01*
X154232473Y-99050556D01*
X154327960Y-99215944D01*
X154455747Y-99357866D01*
X154610248Y-99470118D01*
X154616276Y-99472802D01*
X154616278Y-99472803D01*
X154778681Y-99545109D01*
X154784712Y-99547794D01*
X154878113Y-99567647D01*
X154965056Y-99586128D01*
X154965061Y-99586128D01*
X154971513Y-99587500D01*
X155162487Y-99587500D01*
X155168939Y-99586128D01*
X155168944Y-99586128D01*
X155255887Y-99567647D01*
X155349288Y-99547794D01*
X155355319Y-99545109D01*
X155517722Y-99472803D01*
X155517724Y-99472802D01*
X155523752Y-99470118D01*
X155678253Y-99357866D01*
X155806040Y-99215944D01*
X155901527Y-99050556D01*
X155960542Y-98868928D01*
X155980504Y-98679000D01*
X155960542Y-98489072D01*
X155901527Y-98307444D01*
X155806040Y-98142056D01*
X155678253Y-98000134D01*
X155523752Y-97887882D01*
X155517724Y-97885198D01*
X155517722Y-97885197D01*
X155355319Y-97812891D01*
X155355318Y-97812891D01*
X155349288Y-97810206D01*
X155255888Y-97790353D01*
X155168944Y-97771872D01*
X155168939Y-97771872D01*
X155162487Y-97770500D01*
X154971513Y-97770500D01*
X154965061Y-97771872D01*
X154965056Y-97771872D01*
X154878113Y-97790353D01*
X154784712Y-97810206D01*
X154778682Y-97812891D01*
X154778681Y-97812891D01*
X154616278Y-97885197D01*
X154616276Y-97885198D01*
X154610248Y-97887882D01*
X154455747Y-98000134D01*
X154327960Y-98142056D01*
X154232473Y-98307444D01*
X154173458Y-98489072D01*
X154153496Y-98679000D01*
X131064000Y-98679000D01*
X131064000Y-81661000D01*
X154280496Y-81661000D01*
X154300458Y-81850928D01*
X154359473Y-82032556D01*
X154454960Y-82197944D01*
X154582747Y-82339866D01*
X154737248Y-82452118D01*
X154743276Y-82454802D01*
X154743278Y-82454803D01*
X154905681Y-82527109D01*
X154911712Y-82529794D01*
X155005112Y-82549647D01*
X155092056Y-82568128D01*
X155092061Y-82568128D01*
X155098513Y-82569500D01*
X155289487Y-82569500D01*
X155295939Y-82568128D01*
X155295944Y-82568128D01*
X155382887Y-82549647D01*
X155476288Y-82529794D01*
X155482319Y-82527109D01*
X155644722Y-82454803D01*
X155644724Y-82454802D01*
X155650752Y-82452118D01*
X155805253Y-82339866D01*
X155933040Y-82197944D01*
X156028527Y-82032556D01*
X156087542Y-81850928D01*
X156107504Y-81661000D01*
X156087542Y-81471072D01*
X156028527Y-81289444D01*
X155933040Y-81124056D01*
X155805253Y-80982134D01*
X155650752Y-80869882D01*
X155644724Y-80867198D01*
X155644722Y-80867197D01*
X155482319Y-80794891D01*
X155482318Y-80794891D01*
X155476288Y-80792206D01*
X155382888Y-80772353D01*
X155295944Y-80753872D01*
X155295939Y-80753872D01*
X155289487Y-80752500D01*
X155098513Y-80752500D01*
X155092061Y-80753872D01*
X155092056Y-80753872D01*
X155005112Y-80772353D01*
X154911712Y-80792206D01*
X154905682Y-80794891D01*
X154905681Y-80794891D01*
X154743278Y-80867197D01*
X154743276Y-80867198D01*
X154737248Y-80869882D01*
X154582747Y-80982134D01*
X154454960Y-81124056D01*
X154359473Y-81289444D01*
X154300458Y-81471072D01*
X154280496Y-81661000D01*
X131064000Y-81661000D01*
X131064000Y-74165000D01*
X132872693Y-74165000D01*
X132891885Y-74384371D01*
X132948880Y-74597076D01*
X132992415Y-74690438D01*
X133039618Y-74791666D01*
X133039621Y-74791671D01*
X133041944Y-74796653D01*
X133168251Y-74977038D01*
X133323962Y-75132749D01*
X133504346Y-75259056D01*
X133703924Y-75352120D01*
X133916629Y-75409115D01*
X134136000Y-75428307D01*
X134355371Y-75409115D01*
X134568076Y-75352120D01*
X134767654Y-75259056D01*
X134948038Y-75132749D01*
X135103749Y-74977038D01*
X135230056Y-74796653D01*
X135232379Y-74791671D01*
X135232382Y-74791666D01*
X135279585Y-74690438D01*
X135323120Y-74597076D01*
X135380115Y-74384371D01*
X135399307Y-74165000D01*
X135872693Y-74165000D01*
X135891885Y-74384371D01*
X135948880Y-74597076D01*
X135992415Y-74690438D01*
X136039618Y-74791666D01*
X136039621Y-74791671D01*
X136041944Y-74796653D01*
X136168251Y-74977038D01*
X136323962Y-75132749D01*
X136504346Y-75259056D01*
X136703924Y-75352120D01*
X136916629Y-75409115D01*
X137136000Y-75428307D01*
X137355371Y-75409115D01*
X137568076Y-75352120D01*
X137767654Y-75259056D01*
X137948038Y-75132749D01*
X138103749Y-74977038D01*
X138230056Y-74796653D01*
X138232379Y-74791671D01*
X138232382Y-74791666D01*
X138279585Y-74690438D01*
X138323120Y-74597076D01*
X138380115Y-74384371D01*
X138399307Y-74165000D01*
X138380115Y-73945629D01*
X138323120Y-73732924D01*
X138279585Y-73639562D01*
X138232382Y-73538334D01*
X138232379Y-73538329D01*
X138230056Y-73533347D01*
X138190346Y-73476635D01*
X138106908Y-73357473D01*
X138106906Y-73357470D01*
X138103749Y-73352962D01*
X137948038Y-73197251D01*
X137767654Y-73070944D01*
X137568076Y-72977880D01*
X137355371Y-72920885D01*
X137136000Y-72901693D01*
X136916629Y-72920885D01*
X136703924Y-72977880D01*
X136610562Y-73021415D01*
X136509334Y-73068618D01*
X136509329Y-73068621D01*
X136504347Y-73070944D01*
X136499840Y-73074100D01*
X136499838Y-73074101D01*
X136328473Y-73194092D01*
X136328470Y-73194094D01*
X136323962Y-73197251D01*
X136168251Y-73352962D01*
X136165094Y-73357470D01*
X136165092Y-73357473D01*
X136081654Y-73476635D01*
X136041944Y-73533347D01*
X136039621Y-73538329D01*
X136039618Y-73538334D01*
X135992415Y-73639562D01*
X135948880Y-73732924D01*
X135891885Y-73945629D01*
X135872693Y-74165000D01*
X135399307Y-74165000D01*
X135380115Y-73945629D01*
X135323120Y-73732924D01*
X135279585Y-73639562D01*
X135232382Y-73538334D01*
X135232379Y-73538329D01*
X135230056Y-73533347D01*
X135190346Y-73476635D01*
X135106908Y-73357473D01*
X135106906Y-73357470D01*
X135103749Y-73352962D01*
X134948038Y-73197251D01*
X134767654Y-73070944D01*
X134568076Y-72977880D01*
X134355371Y-72920885D01*
X134136000Y-72901693D01*
X133916629Y-72920885D01*
X133703924Y-72977880D01*
X133610562Y-73021415D01*
X133509334Y-73068618D01*
X133509329Y-73068621D01*
X133504347Y-73070944D01*
X133499840Y-73074100D01*
X133499838Y-73074101D01*
X133328473Y-73194092D01*
X133328470Y-73194094D01*
X133323962Y-73197251D01*
X133168251Y-73352962D01*
X133165094Y-73357470D01*
X133165092Y-73357473D01*
X133081654Y-73476635D01*
X133041944Y-73533347D01*
X133039621Y-73538329D01*
X133039618Y-73538334D01*
X132992415Y-73639562D01*
X132948880Y-73732924D01*
X132891885Y-73945629D01*
X132872693Y-74165000D01*
X131064000Y-74165000D01*
X131064000Y-66774733D01*
X133623822Y-66774733D01*
X133633625Y-67055458D01*
X133634387Y-67059781D01*
X133634388Y-67059788D01*
X133658164Y-67194624D01*
X133682402Y-67332087D01*
X133769203Y-67599235D01*
X133771131Y-67603188D01*
X133771133Y-67603193D01*
X133794837Y-67651792D01*
X133892340Y-67851702D01*
X133894795Y-67855341D01*
X133894798Y-67855347D01*
X133963511Y-67957217D01*
X134049415Y-68084576D01*
X134237371Y-68293322D01*
X134452550Y-68473879D01*
X134690764Y-68622731D01*
X134947375Y-68736982D01*
X135217390Y-68814407D01*
X135221740Y-68815018D01*
X135221743Y-68815019D01*
X135318727Y-68828649D01*
X135495552Y-68853500D01*
X135706146Y-68853500D01*
X135708332Y-68853347D01*
X135708336Y-68853347D01*
X135911827Y-68839118D01*
X135911832Y-68839117D01*
X135916212Y-68838811D01*
X136190970Y-68780409D01*
X136195099Y-68778906D01*
X136195103Y-68778905D01*
X136450781Y-68685846D01*
X136450785Y-68685844D01*
X136454926Y-68684337D01*
X136702942Y-68552464D01*
X136807896Y-68476211D01*
X136926629Y-68389947D01*
X136926632Y-68389944D01*
X136930192Y-68387358D01*
X136962702Y-68355964D01*
X137083023Y-68239771D01*
X137132252Y-68192231D01*
X137305188Y-67970882D01*
X137307384Y-67967078D01*
X137307389Y-67967071D01*
X137443435Y-67731431D01*
X137445636Y-67727619D01*
X137550862Y-67467176D01*
X137584544Y-67332087D01*
X137617753Y-67198893D01*
X137617754Y-67198888D01*
X137618817Y-67194624D01*
X137648178Y-66915267D01*
X137638375Y-66634542D01*
X137614608Y-66499749D01*
X137590360Y-66362236D01*
X137589598Y-66357913D01*
X137502797Y-66090765D01*
X137379660Y-65838298D01*
X137377205Y-65834659D01*
X137377202Y-65834653D01*
X137296935Y-65715653D01*
X137222585Y-65605424D01*
X137034629Y-65396678D01*
X136819450Y-65216121D01*
X136581236Y-65067269D01*
X136324625Y-64953018D01*
X136054610Y-64875593D01*
X136050260Y-64874982D01*
X136050257Y-64874981D01*
X135910580Y-64855351D01*
X135776448Y-64836500D01*
X135565854Y-64836500D01*
X135563668Y-64836653D01*
X135563664Y-64836653D01*
X135360173Y-64850882D01*
X135360168Y-64850883D01*
X135355788Y-64851189D01*
X135081030Y-64909591D01*
X135076901Y-64911094D01*
X135076897Y-64911095D01*
X134821219Y-65004154D01*
X134821215Y-65004156D01*
X134817074Y-65005663D01*
X134569058Y-65137536D01*
X134565499Y-65140122D01*
X134565497Y-65140123D01*
X134460895Y-65216121D01*
X134341808Y-65302642D01*
X134338644Y-65305698D01*
X134338641Y-65305700D01*
X134310593Y-65332786D01*
X134139748Y-65497769D01*
X133966812Y-65719118D01*
X133964616Y-65722922D01*
X133964611Y-65722929D01*
X133850794Y-65920067D01*
X133826364Y-65962381D01*
X133721138Y-66222824D01*
X133720073Y-66227097D01*
X133720072Y-66227099D01*
X133686379Y-66362236D01*
X133653183Y-66495376D01*
X133623822Y-66774733D01*
X131064000Y-66774733D01*
X131064000Y-63626000D01*
X131084002Y-63557879D01*
X131137658Y-63511386D01*
X131190000Y-63500000D01*
X160910000Y-63500000D01*
X160978121Y-63520002D01*
G37*
%TD.AperFunction*%
%TD*%
%TA.AperFunction,Conductor*%
%TO.N,GND*%
G36*
X171237105Y-63520002D02*
G01*
X171283598Y-63573658D01*
X171293702Y-63643932D01*
X171264208Y-63708512D01*
X171243045Y-63727936D01*
X171110705Y-63824087D01*
X171092747Y-63837134D01*
X170964960Y-63979056D01*
X170869473Y-64144444D01*
X170810458Y-64326072D01*
X170790496Y-64516000D01*
X170810458Y-64705928D01*
X170869473Y-64887556D01*
X170872776Y-64893278D01*
X170872777Y-64893279D01*
X170906686Y-64952010D01*
X170964960Y-65052944D01*
X170977338Y-65066691D01*
X171008054Y-65130697D01*
X170999290Y-65201150D01*
X170977339Y-65235307D01*
X170964960Y-65249056D01*
X170869473Y-65414444D01*
X170810458Y-65596072D01*
X170790496Y-65786000D01*
X170791186Y-65792565D01*
X170799728Y-65873833D01*
X170810458Y-65975928D01*
X170869473Y-66157556D01*
X170964960Y-66322944D01*
X171092747Y-66464866D01*
X171247248Y-66577118D01*
X171253276Y-66579802D01*
X171253278Y-66579803D01*
X171304551Y-66602631D01*
X171421712Y-66654794D01*
X171515112Y-66674647D01*
X171602056Y-66693128D01*
X171602061Y-66693128D01*
X171608513Y-66694500D01*
X171799487Y-66694500D01*
X171805939Y-66693128D01*
X171805944Y-66693128D01*
X171892888Y-66674647D01*
X171986288Y-66654794D01*
X172103449Y-66602631D01*
X172154722Y-66579803D01*
X172154724Y-66579802D01*
X172160752Y-66577118D01*
X172206568Y-66543831D01*
X172265939Y-66500695D01*
X172332807Y-66476837D01*
X172401958Y-66492917D01*
X172451438Y-66543831D01*
X172466000Y-66602631D01*
X172466000Y-70866000D01*
X181484000Y-70866000D01*
X181552121Y-70886002D01*
X181598614Y-70939658D01*
X181610000Y-70992000D01*
X181610000Y-72468187D01*
X181589998Y-72536308D01*
X181536342Y-72582801D01*
X181466068Y-72592905D01*
X181444333Y-72587780D01*
X181301389Y-72540368D01*
X181301387Y-72540368D01*
X181294861Y-72538203D01*
X181288025Y-72537503D01*
X181288022Y-72537502D01*
X181244969Y-72533091D01*
X181190400Y-72527500D01*
X180089600Y-72527500D01*
X180086354Y-72527837D01*
X180086350Y-72527837D01*
X179990693Y-72537762D01*
X179990689Y-72537763D01*
X179983835Y-72538474D01*
X179977299Y-72540655D01*
X179977297Y-72540655D01*
X179850971Y-72582801D01*
X179816055Y-72594450D01*
X179665652Y-72687522D01*
X179540695Y-72812697D01*
X179447885Y-72963262D01*
X179392203Y-73131139D01*
X179381500Y-73235600D01*
X179381500Y-74336400D01*
X179381837Y-74339646D01*
X179381837Y-74339650D01*
X179390399Y-74422162D01*
X179392474Y-74442165D01*
X179448450Y-74609945D01*
X179541522Y-74760348D01*
X179666697Y-74885305D01*
X179672927Y-74889145D01*
X179672928Y-74889146D01*
X179809159Y-74973120D01*
X179817262Y-74978115D01*
X179897005Y-75004564D01*
X179978611Y-75031632D01*
X179978613Y-75031632D01*
X179985139Y-75033797D01*
X179991975Y-75034497D01*
X179991978Y-75034498D01*
X180035031Y-75038909D01*
X180089600Y-75044500D01*
X181190400Y-75044500D01*
X181193646Y-75044163D01*
X181193650Y-75044163D01*
X181289307Y-75034238D01*
X181289311Y-75034237D01*
X181296165Y-75033526D01*
X181302701Y-75031345D01*
X181302703Y-75031345D01*
X181444124Y-74984163D01*
X181515073Y-74981579D01*
X181576157Y-75017762D01*
X181607982Y-75081227D01*
X181610000Y-75103687D01*
X181610000Y-103252000D01*
X181589998Y-103320121D01*
X181536342Y-103366614D01*
X181484000Y-103378000D01*
X164210000Y-103378000D01*
X164141879Y-103357998D01*
X164095386Y-103304342D01*
X164084000Y-103252000D01*
X164084000Y-101219000D01*
X167869496Y-101219000D01*
X167889458Y-101408928D01*
X167948473Y-101590556D01*
X168043960Y-101755944D01*
X168171747Y-101897866D01*
X168326248Y-102010118D01*
X168332276Y-102012802D01*
X168332278Y-102012803D01*
X168494681Y-102085109D01*
X168500712Y-102087794D01*
X168594113Y-102107647D01*
X168681056Y-102126128D01*
X168681061Y-102126128D01*
X168687513Y-102127500D01*
X168878487Y-102127500D01*
X168884939Y-102126128D01*
X168884944Y-102126128D01*
X168971887Y-102107647D01*
X169065288Y-102087794D01*
X169071319Y-102085109D01*
X169233722Y-102012803D01*
X169233724Y-102012802D01*
X169239752Y-102010118D01*
X169394253Y-101897866D01*
X169522040Y-101755944D01*
X169617527Y-101590556D01*
X169676542Y-101408928D01*
X169696504Y-101219000D01*
X169676542Y-101029072D01*
X169617527Y-100847444D01*
X169522040Y-100682056D01*
X169394253Y-100540134D01*
X169239752Y-100427882D01*
X169233724Y-100425198D01*
X169233722Y-100425197D01*
X169071319Y-100352891D01*
X169071318Y-100352891D01*
X169065288Y-100350206D01*
X168971888Y-100330353D01*
X168884944Y-100311872D01*
X168884939Y-100311872D01*
X168878487Y-100310500D01*
X168687513Y-100310500D01*
X168681061Y-100311872D01*
X168681056Y-100311872D01*
X168594112Y-100330353D01*
X168500712Y-100350206D01*
X168494682Y-100352891D01*
X168494681Y-100352891D01*
X168332278Y-100425197D01*
X168332276Y-100425198D01*
X168326248Y-100427882D01*
X168171747Y-100540134D01*
X168043960Y-100682056D01*
X167948473Y-100847444D01*
X167889458Y-101029072D01*
X167869496Y-101219000D01*
X164084000Y-101219000D01*
X164084000Y-98679000D01*
X171171496Y-98679000D01*
X171191458Y-98868928D01*
X171250473Y-99050556D01*
X171345960Y-99215944D01*
X171473747Y-99357866D01*
X171628248Y-99470118D01*
X171634276Y-99472802D01*
X171634278Y-99472803D01*
X171796681Y-99545109D01*
X171802712Y-99547794D01*
X171896113Y-99567647D01*
X171983056Y-99586128D01*
X171983061Y-99586128D01*
X171989513Y-99587500D01*
X172180487Y-99587500D01*
X172186939Y-99586128D01*
X172186944Y-99586128D01*
X172273887Y-99567647D01*
X172367288Y-99547794D01*
X172373319Y-99545109D01*
X172535722Y-99472803D01*
X172535724Y-99472802D01*
X172541752Y-99470118D01*
X172696253Y-99357866D01*
X172824040Y-99215944D01*
X172919527Y-99050556D01*
X172978542Y-98868928D01*
X172998504Y-98679000D01*
X172978542Y-98489072D01*
X172919527Y-98307444D01*
X172824040Y-98142056D01*
X172778744Y-98091749D01*
X172700675Y-98005045D01*
X172700674Y-98005044D01*
X172696253Y-98000134D01*
X172541752Y-97887882D01*
X172535724Y-97885198D01*
X172535722Y-97885197D01*
X172373319Y-97812891D01*
X172373318Y-97812891D01*
X172367288Y-97810206D01*
X172254721Y-97786279D01*
X172186944Y-97771872D01*
X172186939Y-97771872D01*
X172180487Y-97770500D01*
X171989513Y-97770500D01*
X171983061Y-97771872D01*
X171983056Y-97771872D01*
X171915279Y-97786279D01*
X171802712Y-97810206D01*
X171796682Y-97812891D01*
X171796681Y-97812891D01*
X171634278Y-97885197D01*
X171634276Y-97885198D01*
X171628248Y-97887882D01*
X171473747Y-98000134D01*
X171469326Y-98005044D01*
X171469325Y-98005045D01*
X171391257Y-98091749D01*
X171345960Y-98142056D01*
X171250473Y-98307444D01*
X171191458Y-98489072D01*
X171171496Y-98679000D01*
X164084000Y-98679000D01*
X164084000Y-97409000D01*
X167869496Y-97409000D01*
X167889458Y-97598928D01*
X167948473Y-97780556D01*
X168043960Y-97945944D01*
X168048378Y-97950851D01*
X168048379Y-97950852D01*
X168092753Y-98000134D01*
X168171747Y-98087866D01*
X168326248Y-98200118D01*
X168332276Y-98202802D01*
X168332278Y-98202803D01*
X168494681Y-98275109D01*
X168500712Y-98277794D01*
X168594112Y-98297647D01*
X168681056Y-98316128D01*
X168681061Y-98316128D01*
X168687513Y-98317500D01*
X168878487Y-98317500D01*
X168884939Y-98316128D01*
X168884944Y-98316128D01*
X168971888Y-98297647D01*
X169065288Y-98277794D01*
X169071319Y-98275109D01*
X169233722Y-98202803D01*
X169233724Y-98202802D01*
X169239752Y-98200118D01*
X169394253Y-98087866D01*
X169473247Y-98000134D01*
X169517621Y-97950852D01*
X169517622Y-97950851D01*
X169522040Y-97945944D01*
X169617527Y-97780556D01*
X169676542Y-97598928D01*
X169696504Y-97409000D01*
X169676542Y-97219072D01*
X169617527Y-97037444D01*
X169522040Y-96872056D01*
X169394253Y-96730134D01*
X169239752Y-96617882D01*
X169233724Y-96615198D01*
X169233722Y-96615197D01*
X169071319Y-96542891D01*
X169071318Y-96542891D01*
X169065288Y-96540206D01*
X168971887Y-96520353D01*
X168884944Y-96501872D01*
X168884939Y-96501872D01*
X168878487Y-96500500D01*
X168687513Y-96500500D01*
X168681061Y-96501872D01*
X168681056Y-96501872D01*
X168594112Y-96520353D01*
X168500712Y-96540206D01*
X168494682Y-96542891D01*
X168494681Y-96542891D01*
X168332278Y-96615197D01*
X168332276Y-96615198D01*
X168326248Y-96617882D01*
X168171747Y-96730134D01*
X168043960Y-96872056D01*
X167948473Y-97037444D01*
X167889458Y-97219072D01*
X167869496Y-97409000D01*
X164084000Y-97409000D01*
X164084000Y-94869000D01*
X167869496Y-94869000D01*
X167889458Y-95058928D01*
X167948473Y-95240556D01*
X168043960Y-95405944D01*
X168048378Y-95410851D01*
X168048379Y-95410852D01*
X168159203Y-95533935D01*
X168171747Y-95547866D01*
X168326248Y-95660118D01*
X168332276Y-95662802D01*
X168332278Y-95662803D01*
X168494681Y-95735109D01*
X168500712Y-95737794D01*
X168594112Y-95757647D01*
X168681056Y-95776128D01*
X168681061Y-95776128D01*
X168687513Y-95777500D01*
X168878487Y-95777500D01*
X168884939Y-95776128D01*
X168884944Y-95776128D01*
X168971887Y-95757647D01*
X169065288Y-95737794D01*
X169071319Y-95735109D01*
X169233722Y-95662803D01*
X169233724Y-95662802D01*
X169239752Y-95660118D01*
X169394253Y-95547866D01*
X169406797Y-95533935D01*
X169517621Y-95410852D01*
X169517622Y-95410851D01*
X169522040Y-95405944D01*
X169617527Y-95240556D01*
X169676542Y-95058928D01*
X169696504Y-94869000D01*
X169681209Y-94723475D01*
X169680634Y-94718000D01*
X176376693Y-94718000D01*
X176395885Y-94937371D01*
X176452880Y-95150076D01*
X176455205Y-95155061D01*
X176543618Y-95344666D01*
X176543621Y-95344671D01*
X176545944Y-95349653D01*
X176549100Y-95354160D01*
X176549101Y-95354162D01*
X176581356Y-95400226D01*
X176672251Y-95530038D01*
X176827962Y-95685749D01*
X176832471Y-95688906D01*
X176832473Y-95688908D01*
X176904249Y-95739166D01*
X177008346Y-95812056D01*
X177207924Y-95905120D01*
X177420629Y-95962115D01*
X177640000Y-95981307D01*
X177859371Y-95962115D01*
X178072076Y-95905120D01*
X178271654Y-95812056D01*
X178375751Y-95739166D01*
X178447527Y-95688908D01*
X178447529Y-95688906D01*
X178452038Y-95685749D01*
X178607749Y-95530038D01*
X178698645Y-95400226D01*
X178730899Y-95354162D01*
X178730900Y-95354160D01*
X178734056Y-95349653D01*
X178736379Y-95344671D01*
X178736382Y-95344666D01*
X178824795Y-95155061D01*
X178827120Y-95150076D01*
X178884115Y-94937371D01*
X178903307Y-94718000D01*
X178884115Y-94498629D01*
X178827120Y-94285924D01*
X178780642Y-94186251D01*
X178736382Y-94091334D01*
X178736379Y-94091329D01*
X178734056Y-94086347D01*
X178726249Y-94075197D01*
X178610908Y-93910473D01*
X178610906Y-93910470D01*
X178607749Y-93905962D01*
X178452038Y-93750251D01*
X178271654Y-93623944D01*
X178072076Y-93530880D01*
X177859371Y-93473885D01*
X177640000Y-93454693D01*
X177420629Y-93473885D01*
X177207924Y-93530880D01*
X177114562Y-93574415D01*
X177013334Y-93621618D01*
X177013329Y-93621621D01*
X177008347Y-93623944D01*
X177003840Y-93627100D01*
X177003838Y-93627101D01*
X176832473Y-93747092D01*
X176832470Y-93747094D01*
X176827962Y-93750251D01*
X176672251Y-93905962D01*
X176669094Y-93910470D01*
X176669092Y-93910473D01*
X176553751Y-94075197D01*
X176545944Y-94086347D01*
X176543621Y-94091329D01*
X176543618Y-94091334D01*
X176499358Y-94186251D01*
X176452880Y-94285924D01*
X176395885Y-94498629D01*
X176376693Y-94718000D01*
X169680634Y-94718000D01*
X169677232Y-94685635D01*
X169677232Y-94685633D01*
X169676542Y-94679072D01*
X169617527Y-94497444D01*
X169522040Y-94332056D01*
X169394253Y-94190134D01*
X169239752Y-94077882D01*
X169233724Y-94075198D01*
X169233722Y-94075197D01*
X169071319Y-94002891D01*
X169071318Y-94002891D01*
X169065288Y-94000206D01*
X168971887Y-93980353D01*
X168884944Y-93961872D01*
X168884939Y-93961872D01*
X168878487Y-93960500D01*
X168687513Y-93960500D01*
X168681061Y-93961872D01*
X168681056Y-93961872D01*
X168594112Y-93980353D01*
X168500712Y-94000206D01*
X168494682Y-94002891D01*
X168494681Y-94002891D01*
X168332278Y-94075197D01*
X168332276Y-94075198D01*
X168326248Y-94077882D01*
X168171747Y-94190134D01*
X168043960Y-94332056D01*
X167948473Y-94497444D01*
X167889458Y-94679072D01*
X167888768Y-94685633D01*
X167888768Y-94685635D01*
X167884791Y-94723475D01*
X167869496Y-94869000D01*
X164084000Y-94869000D01*
X164084000Y-91718000D01*
X176376693Y-91718000D01*
X176395885Y-91937371D01*
X176452880Y-92150076D01*
X176455205Y-92155061D01*
X176543618Y-92344666D01*
X176543621Y-92344671D01*
X176545944Y-92349653D01*
X176672251Y-92530038D01*
X176827962Y-92685749D01*
X177008346Y-92812056D01*
X177207924Y-92905120D01*
X177420629Y-92962115D01*
X177640000Y-92981307D01*
X177859371Y-92962115D01*
X178072076Y-92905120D01*
X178271654Y-92812056D01*
X178452038Y-92685749D01*
X178607749Y-92530038D01*
X178734056Y-92349653D01*
X178736379Y-92344671D01*
X178736382Y-92344666D01*
X178824795Y-92155061D01*
X178827120Y-92150076D01*
X178884115Y-91937371D01*
X178903307Y-91718000D01*
X178884115Y-91498629D01*
X178827120Y-91285924D01*
X178783585Y-91192562D01*
X178736382Y-91091334D01*
X178736379Y-91091329D01*
X178734056Y-91086347D01*
X178607749Y-90905962D01*
X178452038Y-90750251D01*
X178271654Y-90623944D01*
X178072076Y-90530880D01*
X177859371Y-90473885D01*
X177640000Y-90454693D01*
X177420629Y-90473885D01*
X177207924Y-90530880D01*
X177114562Y-90574415D01*
X177013334Y-90621618D01*
X177013329Y-90621621D01*
X177008347Y-90623944D01*
X177003840Y-90627100D01*
X177003838Y-90627101D01*
X176832473Y-90747092D01*
X176832470Y-90747094D01*
X176827962Y-90750251D01*
X176672251Y-90905962D01*
X176545944Y-91086347D01*
X176543621Y-91091329D01*
X176543618Y-91091334D01*
X176496415Y-91192562D01*
X176452880Y-91285924D01*
X176395885Y-91498629D01*
X176376693Y-91718000D01*
X164084000Y-91718000D01*
X164084000Y-84201000D01*
X167869496Y-84201000D01*
X167889458Y-84390928D01*
X167948473Y-84572556D01*
X168043960Y-84737944D01*
X168171747Y-84879866D01*
X168326248Y-84992118D01*
X168332276Y-84994802D01*
X168332278Y-84994803D01*
X168494681Y-85067109D01*
X168500712Y-85069794D01*
X168594112Y-85089647D01*
X168681056Y-85108128D01*
X168681061Y-85108128D01*
X168687513Y-85109500D01*
X168878487Y-85109500D01*
X168884939Y-85108128D01*
X168884944Y-85108128D01*
X168971888Y-85089647D01*
X169065288Y-85069794D01*
X169071319Y-85067109D01*
X169233722Y-84994803D01*
X169233724Y-84994802D01*
X169239752Y-84992118D01*
X169394253Y-84879866D01*
X169522040Y-84737944D01*
X169617527Y-84572556D01*
X169676542Y-84390928D01*
X169696504Y-84201000D01*
X169676542Y-84011072D01*
X169617527Y-83829444D01*
X169522040Y-83664056D01*
X169394253Y-83522134D01*
X169239752Y-83409882D01*
X169233724Y-83407198D01*
X169233722Y-83407197D01*
X169071319Y-83334891D01*
X169071318Y-83334891D01*
X169065288Y-83332206D01*
X168971888Y-83312353D01*
X168884944Y-83293872D01*
X168884939Y-83293872D01*
X168878487Y-83292500D01*
X168687513Y-83292500D01*
X168681061Y-83293872D01*
X168681056Y-83293872D01*
X168594113Y-83312353D01*
X168500712Y-83332206D01*
X168494682Y-83334891D01*
X168494681Y-83334891D01*
X168332278Y-83407197D01*
X168332276Y-83407198D01*
X168326248Y-83409882D01*
X168171747Y-83522134D01*
X168043960Y-83664056D01*
X167948473Y-83829444D01*
X167889458Y-84011072D01*
X167869496Y-84201000D01*
X164084000Y-84201000D01*
X164084000Y-81661000D01*
X171425496Y-81661000D01*
X171445458Y-81850928D01*
X171504473Y-82032556D01*
X171599960Y-82197944D01*
X171727747Y-82339866D01*
X171882248Y-82452118D01*
X171888276Y-82454802D01*
X171888278Y-82454803D01*
X172050681Y-82527109D01*
X172056712Y-82529794D01*
X172150112Y-82549647D01*
X172237056Y-82568128D01*
X172237061Y-82568128D01*
X172243513Y-82569500D01*
X172434487Y-82569500D01*
X172440939Y-82568128D01*
X172440944Y-82568128D01*
X172527887Y-82549647D01*
X172621288Y-82529794D01*
X172627319Y-82527109D01*
X172789722Y-82454803D01*
X172789724Y-82454802D01*
X172795752Y-82452118D01*
X172950253Y-82339866D01*
X173078040Y-82197944D01*
X173173527Y-82032556D01*
X173232542Y-81850928D01*
X173252504Y-81661000D01*
X173232542Y-81471072D01*
X173173527Y-81289444D01*
X173078040Y-81124056D01*
X173032744Y-81073749D01*
X172954675Y-80987045D01*
X172954674Y-80987044D01*
X172950253Y-80982134D01*
X172795752Y-80869882D01*
X172789724Y-80867198D01*
X172789722Y-80867197D01*
X172627319Y-80794891D01*
X172627318Y-80794891D01*
X172621288Y-80792206D01*
X172508721Y-80768279D01*
X172440944Y-80753872D01*
X172440939Y-80753872D01*
X172434487Y-80752500D01*
X172243513Y-80752500D01*
X172237061Y-80753872D01*
X172237056Y-80753872D01*
X172169279Y-80768279D01*
X172056712Y-80792206D01*
X172050682Y-80794891D01*
X172050681Y-80794891D01*
X171888278Y-80867197D01*
X171888276Y-80867198D01*
X171882248Y-80869882D01*
X171727747Y-80982134D01*
X171723326Y-80987044D01*
X171723325Y-80987045D01*
X171645257Y-81073749D01*
X171599960Y-81124056D01*
X171504473Y-81289444D01*
X171445458Y-81471072D01*
X171425496Y-81661000D01*
X164084000Y-81661000D01*
X164084000Y-80391000D01*
X167869496Y-80391000D01*
X167889458Y-80580928D01*
X167948473Y-80762556D01*
X168043960Y-80927944D01*
X168048378Y-80932851D01*
X168048379Y-80932852D01*
X168092753Y-80982134D01*
X168171747Y-81069866D01*
X168326248Y-81182118D01*
X168332276Y-81184802D01*
X168332278Y-81184803D01*
X168494681Y-81257109D01*
X168500712Y-81259794D01*
X168594113Y-81279647D01*
X168681056Y-81298128D01*
X168681061Y-81298128D01*
X168687513Y-81299500D01*
X168878487Y-81299500D01*
X168884939Y-81298128D01*
X168884944Y-81298128D01*
X168971888Y-81279647D01*
X169065288Y-81259794D01*
X169071319Y-81257109D01*
X169233722Y-81184803D01*
X169233724Y-81184802D01*
X169239752Y-81182118D01*
X169394253Y-81069866D01*
X169473247Y-80982134D01*
X169517621Y-80932852D01*
X169517622Y-80932851D01*
X169522040Y-80927944D01*
X169617527Y-80762556D01*
X169676542Y-80580928D01*
X169696504Y-80391000D01*
X169676542Y-80201072D01*
X169617527Y-80019444D01*
X169522040Y-79854056D01*
X169394253Y-79712134D01*
X169239752Y-79599882D01*
X169233724Y-79597198D01*
X169233722Y-79597197D01*
X169071319Y-79524891D01*
X169071318Y-79524891D01*
X169065288Y-79522206D01*
X168971887Y-79502353D01*
X168884944Y-79483872D01*
X168884939Y-79483872D01*
X168878487Y-79482500D01*
X168687513Y-79482500D01*
X168681061Y-79483872D01*
X168681056Y-79483872D01*
X168594113Y-79502353D01*
X168500712Y-79522206D01*
X168494682Y-79524891D01*
X168494681Y-79524891D01*
X168332278Y-79597197D01*
X168332276Y-79597198D01*
X168326248Y-79599882D01*
X168171747Y-79712134D01*
X168043960Y-79854056D01*
X167948473Y-80019444D01*
X167889458Y-80201072D01*
X167869496Y-80391000D01*
X164084000Y-80391000D01*
X164084000Y-77851000D01*
X167869496Y-77851000D01*
X167889458Y-78040928D01*
X167948473Y-78222556D01*
X168043960Y-78387944D01*
X168171747Y-78529866D01*
X168326248Y-78642118D01*
X168332276Y-78644802D01*
X168332278Y-78644803D01*
X168494681Y-78717109D01*
X168500712Y-78719794D01*
X168594113Y-78739647D01*
X168681056Y-78758128D01*
X168681061Y-78758128D01*
X168687513Y-78759500D01*
X168878487Y-78759500D01*
X168884939Y-78758128D01*
X168884944Y-78758128D01*
X168971887Y-78739647D01*
X169065288Y-78719794D01*
X169071319Y-78717109D01*
X169233722Y-78644803D01*
X169233724Y-78644802D01*
X169239752Y-78642118D01*
X169394253Y-78529866D01*
X169522040Y-78387944D01*
X169617527Y-78222556D01*
X169676542Y-78040928D01*
X169696504Y-77851000D01*
X169676542Y-77661072D01*
X169617527Y-77479444D01*
X169522040Y-77314056D01*
X169394253Y-77172134D01*
X169239752Y-77059882D01*
X169233724Y-77057198D01*
X169233722Y-77057197D01*
X169071319Y-76984891D01*
X169071318Y-76984891D01*
X169065288Y-76982206D01*
X168971888Y-76962353D01*
X168884944Y-76943872D01*
X168884939Y-76943872D01*
X168878487Y-76942500D01*
X168687513Y-76942500D01*
X168681061Y-76943872D01*
X168681056Y-76943872D01*
X168594112Y-76962353D01*
X168500712Y-76982206D01*
X168494682Y-76984891D01*
X168494681Y-76984891D01*
X168332278Y-77057197D01*
X168332276Y-77057198D01*
X168326248Y-77059882D01*
X168171747Y-77172134D01*
X168043960Y-77314056D01*
X167948473Y-77479444D01*
X167889458Y-77661072D01*
X167869496Y-77851000D01*
X164084000Y-77851000D01*
X164084000Y-73786000D01*
X176376693Y-73786000D01*
X176395885Y-74005371D01*
X176452880Y-74218076D01*
X176455205Y-74223061D01*
X176543618Y-74412666D01*
X176543621Y-74412671D01*
X176545944Y-74417653D01*
X176672251Y-74598038D01*
X176827962Y-74753749D01*
X176832471Y-74756906D01*
X176832473Y-74756908D01*
X176837386Y-74760348D01*
X177008346Y-74880056D01*
X177207924Y-74973120D01*
X177420629Y-75030115D01*
X177640000Y-75049307D01*
X177859371Y-75030115D01*
X178072076Y-74973120D01*
X178271654Y-74880056D01*
X178442614Y-74760348D01*
X178447527Y-74756908D01*
X178447529Y-74756906D01*
X178452038Y-74753749D01*
X178607749Y-74598038D01*
X178734056Y-74417653D01*
X178736379Y-74412671D01*
X178736382Y-74412666D01*
X178824795Y-74223061D01*
X178827120Y-74218076D01*
X178884115Y-74005371D01*
X178903307Y-73786000D01*
X178884115Y-73566629D01*
X178827120Y-73353924D01*
X178770454Y-73232402D01*
X178736382Y-73159334D01*
X178736379Y-73159329D01*
X178734056Y-73154347D01*
X178730899Y-73149838D01*
X178610908Y-72978473D01*
X178610906Y-72978470D01*
X178607749Y-72973962D01*
X178452038Y-72818251D01*
X178444107Y-72812697D01*
X178372759Y-72762739D01*
X178271654Y-72691944D01*
X178072076Y-72598880D01*
X177859371Y-72541885D01*
X177640000Y-72522693D01*
X177420629Y-72541885D01*
X177207924Y-72598880D01*
X177114562Y-72642415D01*
X177013334Y-72689618D01*
X177013329Y-72689621D01*
X177008347Y-72691944D01*
X177003840Y-72695100D01*
X177003838Y-72695101D01*
X176832473Y-72815092D01*
X176832470Y-72815094D01*
X176827962Y-72818251D01*
X176672251Y-72973962D01*
X176669094Y-72978470D01*
X176669092Y-72978473D01*
X176549101Y-73149838D01*
X176545944Y-73154347D01*
X176543621Y-73159329D01*
X176543618Y-73159334D01*
X176509546Y-73232402D01*
X176452880Y-73353924D01*
X176395885Y-73566629D01*
X176376693Y-73786000D01*
X164084000Y-73786000D01*
X164084000Y-68631902D01*
X164104002Y-68563781D01*
X164157658Y-68517288D01*
X164227932Y-68507184D01*
X164297686Y-68541418D01*
X164331299Y-68573992D01*
X164517762Y-68699290D01*
X164723467Y-68789588D01*
X164728918Y-68790897D01*
X164728922Y-68790898D01*
X164936454Y-68840722D01*
X164941911Y-68842032D01*
X165025975Y-68846879D01*
X165160583Y-68854640D01*
X165160586Y-68854640D01*
X165166190Y-68854963D01*
X165389215Y-68827975D01*
X165603935Y-68761918D01*
X165608915Y-68759348D01*
X165608919Y-68759346D01*
X165798581Y-68661454D01*
X165798582Y-68661454D01*
X165803564Y-68658882D01*
X165981792Y-68522123D01*
X166132985Y-68355964D01*
X166252364Y-68165656D01*
X166336156Y-67957217D01*
X166381713Y-67737233D01*
X166385000Y-67680225D01*
X166385000Y-66035001D01*
X166370117Y-65868238D01*
X166310837Y-65651549D01*
X166281382Y-65589794D01*
X166216536Y-65453844D01*
X166214122Y-65448782D01*
X166083029Y-65266346D01*
X165974653Y-65161322D01*
X165925729Y-65113911D01*
X165925726Y-65113909D01*
X165921701Y-65110008D01*
X165735238Y-64984710D01*
X165529533Y-64894412D01*
X165524082Y-64893103D01*
X165524078Y-64893102D01*
X165316546Y-64843278D01*
X165316545Y-64843278D01*
X165311089Y-64841968D01*
X165227025Y-64837121D01*
X165092417Y-64829360D01*
X165092414Y-64829360D01*
X165086810Y-64829037D01*
X164863785Y-64856025D01*
X164649065Y-64922082D01*
X164644085Y-64924652D01*
X164644081Y-64924654D01*
X164454419Y-65022546D01*
X164449436Y-65025118D01*
X164444984Y-65028534D01*
X164444981Y-65028536D01*
X164286704Y-65149986D01*
X164220484Y-65175587D01*
X164150935Y-65161322D01*
X164100139Y-65111721D01*
X164084000Y-65050024D01*
X164084000Y-63626000D01*
X164104002Y-63557879D01*
X164157658Y-63511386D01*
X164210000Y-63500000D01*
X171168984Y-63500000D01*
X171237105Y-63520002D01*
G37*
%TD.AperFunction*%
%TD*%
M02*
