%TF.GenerationSoftware,KiCad,Pcbnew,(6.0.1)*%
%TF.CreationDate,2022-06-01T15:28:07+03:00*%
%TF.ProjectId,Measure,4d656173-7572-4652-9e6b-696361645f70,rev?*%
%TF.SameCoordinates,Original*%
%TF.FileFunction,Copper,L1,Top*%
%TF.FilePolarity,Positive*%
%FSLAX46Y46*%
G04 Gerber Fmt 4.6, Leading zero omitted, Abs format (unit mm)*
G04 Created by KiCad (PCBNEW (6.0.1)) date 2022-06-01 15:28:07*
%MOMM*%
%LPD*%
G01*
G04 APERTURE LIST*
G04 Aperture macros list*
%AMRoundRect*
0 Rectangle with rounded corners*
0 $1 Rounding radius*
0 $2 $3 $4 $5 $6 $7 $8 $9 X,Y pos of 4 corners*
0 Add a 4 corners polygon primitive as box body*
4,1,4,$2,$3,$4,$5,$6,$7,$8,$9,$2,$3,0*
0 Add four circle primitives for the rounded corners*
1,1,$1+$1,$2,$3*
1,1,$1+$1,$4,$5*
1,1,$1+$1,$6,$7*
1,1,$1+$1,$8,$9*
0 Add four rect primitives between the rounded corners*
20,1,$1+$1,$2,$3,$4,$5,0*
20,1,$1+$1,$4,$5,$6,$7,0*
20,1,$1+$1,$6,$7,$8,$9,0*
20,1,$1+$1,$8,$9,$2,$3,0*%
G04 Aperture macros list end*
%TA.AperFunction,SMDPad,CuDef*%
%ADD10RoundRect,0.249999X-0.450001X-1.425001X0.450001X-1.425001X0.450001X1.425001X-0.450001X1.425001X0*%
%TD*%
%TA.AperFunction,SMDPad,CuDef*%
%ADD11RoundRect,0.250000X0.450000X-0.350000X0.450000X0.350000X-0.450000X0.350000X-0.450000X-0.350000X0*%
%TD*%
%TA.AperFunction,SMDPad,CuDef*%
%ADD12RoundRect,0.249999X0.450001X1.425001X-0.450001X1.425001X-0.450001X-1.425001X0.450001X-1.425001X0*%
%TD*%
%TA.AperFunction,ComponentPad*%
%ADD13RoundRect,0.250001X-0.499999X0.499999X-0.499999X-0.499999X0.499999X-0.499999X0.499999X0.499999X0*%
%TD*%
%TA.AperFunction,ComponentPad*%
%ADD14C,1.500000*%
%TD*%
%TA.AperFunction,SMDPad,CuDef*%
%ADD15RoundRect,0.150000X-0.875000X-0.150000X0.875000X-0.150000X0.875000X0.150000X-0.875000X0.150000X0*%
%TD*%
%TA.AperFunction,SMDPad,CuDef*%
%ADD16RoundRect,0.250000X-0.475000X0.337500X-0.475000X-0.337500X0.475000X-0.337500X0.475000X0.337500X0*%
%TD*%
%TA.AperFunction,SMDPad,CuDef*%
%ADD17RoundRect,0.250000X0.475000X-0.337500X0.475000X0.337500X-0.475000X0.337500X-0.475000X-0.337500X0*%
%TD*%
%TA.AperFunction,ComponentPad*%
%ADD18R,1.500000X3.000000*%
%TD*%
%TA.AperFunction,ComponentPad*%
%ADD19O,1.500000X3.000000*%
%TD*%
%TA.AperFunction,ComponentPad*%
%ADD20RoundRect,0.250001X-0.499999X-0.499999X0.499999X-0.499999X0.499999X0.499999X-0.499999X0.499999X0*%
%TD*%
%TA.AperFunction,ViaPad*%
%ADD21C,0.800000*%
%TD*%
%TA.AperFunction,Conductor*%
%ADD22C,0.500000*%
%TD*%
%TA.AperFunction,Conductor*%
%ADD23C,1.000000*%
%TD*%
G04 APERTURE END LIST*
D10*
%TO.P,R1,1*%
%TO.N,/Voltage_IN*%
X141222000Y-92456000D03*
%TO.P,R1,2*%
%TO.N,Net-(R1-Pad2)*%
X147322000Y-92456000D03*
%TD*%
D11*
%TO.P,R8,1*%
%TO.N,Net-(R6-Pad2)*%
X150368000Y-76438000D03*
%TO.P,R8,2*%
%TO.N,Net-(C14-Pad1)*%
X150368000Y-74438000D03*
%TD*%
D12*
%TO.P,R7,1*%
%TO.N,Net-(R6-Pad2)*%
X147322000Y-81280000D03*
%TO.P,R7,2*%
%TO.N,GNDPWR*%
X141222000Y-81280000D03*
%TD*%
D13*
%TO.P,J3,1,Pin_1*%
%TO.N,+5V*%
X180640000Y-73786000D03*
D14*
%TO.P,J3,2,Pin_2*%
%TO.N,GND*%
X180640000Y-76786000D03*
%TO.P,J3,3,Pin_3*%
%TO.N,+5V*%
X177640000Y-73786000D03*
%TO.P,J3,4,Pin_4*%
%TO.N,GND*%
X177640000Y-76786000D03*
%TD*%
D15*
%TO.P,D3,1,Vin+*%
%TO.N,Net-(C4-Pad1)*%
X157402000Y-93599000D03*
%TO.P,D3,2,Vin-*%
%TO.N,Net-(C4-Pad2)*%
X157402000Y-94869000D03*
%TO.P,D3,3,CH*%
%TO.N,Net-(C5-Pad1)*%
X157402000Y-96139000D03*
%TO.P,D3,4,CL*%
%TO.N,Net-(C5-Pad2)*%
X157402000Y-97409000D03*
%TO.P,D3,5,VDD1*%
%TO.N,+5VP*%
X157402000Y-98679000D03*
%TO.P,D3,6,VLED+*%
%TO.N,unconnected-(D3-Pad6)*%
X157402000Y-99949000D03*
%TO.P,D3,7,VDD1*%
%TO.N,Net-(C6-Pad1)*%
X157402000Y-101219000D03*
%TO.P,D3,8,GND1*%
%TO.N,GNDPWR*%
X157402000Y-102489000D03*
%TO.P,D3,9,GND2*%
%TO.N,GND*%
X166702000Y-102489000D03*
%TO.P,D3,10,VDD2*%
%TO.N,+5V*%
X166702000Y-101219000D03*
%TO.P,D3,11,VREF*%
X166702000Y-99949000D03*
%TO.P,D3,12,VOUT*%
%TO.N,/Voltage_IN_Measure*%
X166702000Y-98679000D03*
%TO.P,D3,13,ABSVAL*%
%TO.N,Net-(C11-Pad1)*%
X166702000Y-97409000D03*
%TO.P,D3,14,FAULT*%
X166702000Y-96139000D03*
%TO.P,D3,15,VDD2*%
%TO.N,+5V*%
X166702000Y-94869000D03*
%TO.P,D3,16,GND2*%
%TO.N,GND*%
X166702000Y-93599000D03*
%TD*%
D16*
%TO.P,C14,1*%
%TO.N,Net-(C14-Pad1)*%
X153162000Y-74400500D03*
%TO.P,C14,2*%
%TO.N,Net-(C14-Pad2)*%
X153162000Y-76475500D03*
%TD*%
D17*
%TO.P,C17,1*%
%TO.N,GND*%
X170434000Y-85619500D03*
%TO.P,C17,2*%
%TO.N,+5V*%
X170434000Y-83544500D03*
%TD*%
D16*
%TO.P,C4,1*%
%TO.N,Net-(C4-Pad1)*%
X153162000Y-91418500D03*
%TO.P,C4,2*%
%TO.N,Net-(C4-Pad2)*%
X153162000Y-93493500D03*
%TD*%
D12*
%TO.P,R2,1*%
%TO.N,Net-(R1-Pad2)*%
X147322000Y-98298000D03*
%TO.P,R2,2*%
%TO.N,GNDPWR*%
X141222000Y-98298000D03*
%TD*%
D18*
%TO.P,U1,1,-VIN*%
%TO.N,GND*%
X167666500Y-66842000D03*
D19*
%TO.P,U1,2,+VIN*%
%TO.N,+5V*%
X165126500Y-66842000D03*
%TO.P,U1,4,+VOUT*%
%TO.N,+5VP*%
X160046500Y-66842000D03*
%TO.P,U1,6,-VOUT*%
%TO.N,GNDPWR*%
X154966500Y-66842000D03*
%TD*%
D13*
%TO.P,J2,1,Pin_1*%
%TO.N,GND*%
X180640000Y-91718000D03*
D14*
%TO.P,J2,2,Pin_2*%
X180640000Y-94718000D03*
%TO.P,J2,3,Pin_3*%
%TO.N,/Voltage_OUT_Measure*%
X177640000Y-91718000D03*
%TO.P,J2,4,Pin_4*%
%TO.N,/Voltage_IN_Measure*%
X177640000Y-94718000D03*
%TD*%
D16*
%TO.P,C15,1*%
%TO.N,Net-(C15-Pad1)*%
X153162000Y-78972500D03*
%TO.P,C15,2*%
%TO.N,Net-(C15-Pad2)*%
X153162000Y-81047500D03*
%TD*%
%TO.P,C22,1*%
%TO.N,Net-(C18-Pad1)*%
X178308000Y-83544500D03*
%TO.P,C22,2*%
%TO.N,GND*%
X178308000Y-85619500D03*
%TD*%
D10*
%TO.P,R6,1*%
%TO.N,/Voltage_OUT*%
X141222000Y-75438000D03*
%TO.P,R6,2*%
%TO.N,Net-(R6-Pad2)*%
X147322000Y-75438000D03*
%TD*%
D17*
%TO.P,C8,1*%
%TO.N,GND*%
X170434000Y-102637500D03*
%TO.P,C8,2*%
%TO.N,+5V*%
X170434000Y-100562500D03*
%TD*%
D15*
%TO.P,D5,1,Vin+*%
%TO.N,Net-(C14-Pad1)*%
X157402000Y-76581000D03*
%TO.P,D5,2,Vin-*%
%TO.N,Net-(C14-Pad2)*%
X157402000Y-77851000D03*
%TO.P,D5,3,CH*%
%TO.N,Net-(C15-Pad1)*%
X157402000Y-79121000D03*
%TO.P,D5,4,CL*%
%TO.N,Net-(C15-Pad2)*%
X157402000Y-80391000D03*
%TO.P,D5,5,VDD1*%
%TO.N,+5VP*%
X157402000Y-81661000D03*
%TO.P,D5,6,VLED+*%
%TO.N,unconnected-(D5-Pad6)*%
X157402000Y-82931000D03*
%TO.P,D5,7,VDD1*%
%TO.N,Net-(C16-Pad1)*%
X157402000Y-84201000D03*
%TO.P,D5,8,GND1*%
%TO.N,GNDPWR*%
X157402000Y-85471000D03*
%TO.P,D5,9,GND2*%
%TO.N,GND*%
X166702000Y-85471000D03*
%TO.P,D5,10,VDD2*%
%TO.N,+5V*%
X166702000Y-84201000D03*
%TO.P,D5,11,VREF*%
X166702000Y-82931000D03*
%TO.P,D5,12,VOUT*%
%TO.N,/Voltage_OUT_Measure*%
X166702000Y-81661000D03*
%TO.P,D5,13,ABSVAL*%
%TO.N,Net-(C18-Pad1)*%
X166702000Y-80391000D03*
%TO.P,D5,14,FAULT*%
X166702000Y-79121000D03*
%TO.P,D5,15,VDD2*%
%TO.N,+5V*%
X166702000Y-77851000D03*
%TO.P,D5,16,GND2*%
%TO.N,GND*%
X166702000Y-76581000D03*
%TD*%
D16*
%TO.P,C12,1*%
%TO.N,/Voltage_IN_Measure*%
X172974000Y-100562500D03*
%TO.P,C12,2*%
%TO.N,GND*%
X172974000Y-102637500D03*
%TD*%
%TO.P,C9,1*%
%TO.N,Net-(C11-Pad1)*%
X175514000Y-100584000D03*
%TO.P,C9,2*%
%TO.N,GND*%
X175514000Y-102659000D03*
%TD*%
%TO.P,C6,1*%
%TO.N,Net-(C6-Pad1)*%
X153162000Y-100562500D03*
%TO.P,C6,2*%
%TO.N,GNDPWR*%
X153162000Y-102637500D03*
%TD*%
%TO.P,C5,1*%
%TO.N,Net-(C5-Pad1)*%
X153162000Y-95990500D03*
%TO.P,C5,2*%
%TO.N,Net-(C5-Pad2)*%
X153162000Y-98065500D03*
%TD*%
%TO.P,C11,1*%
%TO.N,Net-(C11-Pad1)*%
X178054000Y-100562500D03*
%TO.P,C11,2*%
%TO.N,GND*%
X178054000Y-102637500D03*
%TD*%
D11*
%TO.P,R3,1*%
%TO.N,Net-(R1-Pad2)*%
X150368000Y-93456000D03*
%TO.P,R3,2*%
%TO.N,Net-(C4-Pad1)*%
X150368000Y-91456000D03*
%TD*%
D16*
%TO.P,C18,1*%
%TO.N,Net-(C18-Pad1)*%
X175514000Y-83544500D03*
%TO.P,C18,2*%
%TO.N,GND*%
X175514000Y-85619500D03*
%TD*%
D20*
%TO.P,J1,1,Pin_1*%
%TO.N,GNDPWR*%
X134136000Y-71165000D03*
D14*
%TO.P,J1,2,Pin_2*%
X137136000Y-71165000D03*
%TO.P,J1,3,Pin_3*%
%TO.N,/Voltage_IN*%
X134136000Y-74165000D03*
%TO.P,J1,4,Pin_4*%
%TO.N,/Voltage_OUT*%
X137136000Y-74165000D03*
%TD*%
D16*
%TO.P,C23,1*%
%TO.N,/Voltage_OUT_Measure*%
X172974000Y-83544500D03*
%TO.P,C23,2*%
%TO.N,GND*%
X172974000Y-85619500D03*
%TD*%
%TO.P,C16,1*%
%TO.N,Net-(C16-Pad1)*%
X153162000Y-83544500D03*
%TO.P,C16,2*%
%TO.N,GNDPWR*%
X153162000Y-85619500D03*
%TD*%
D21*
%TO.N,+5V*%
X168783000Y-94869000D03*
X171704000Y-64516000D03*
X168783000Y-101219000D03*
X168783000Y-77851000D03*
X168783000Y-84201000D03*
X171704000Y-65786000D03*
%TO.N,GND*%
X168783000Y-85471000D03*
X171704000Y-68580000D03*
X171704000Y-69850000D03*
X168783000Y-76581000D03*
X168783000Y-93599000D03*
X168783000Y-102489000D03*
%TO.N,+5VP*%
X159258000Y-73660000D03*
X155194000Y-81661000D03*
X155067000Y-98679000D03*
X160528000Y-73660000D03*
%TO.N,GNDPWR*%
X138684000Y-81280000D03*
X155067000Y-85471000D03*
X155956000Y-73660000D03*
X155067000Y-102489000D03*
X157226000Y-73660000D03*
X138430000Y-98298000D03*
%TO.N,Net-(C11-Pad1)*%
X168783000Y-97409000D03*
%TO.N,/Voltage_IN_Measure*%
X172085000Y-98679000D03*
%TO.N,Net-(C18-Pad1)*%
X168783000Y-80391000D03*
%TO.N,/Voltage_OUT_Measure*%
X172339000Y-81661000D03*
%TD*%
D22*
%TO.N,+5V*%
X166702000Y-77851000D02*
X168783000Y-77851000D01*
X169777500Y-84201000D02*
X170434000Y-83544500D01*
X166702000Y-94869000D02*
X168783000Y-94869000D01*
X168783000Y-101219000D02*
X169777500Y-101219000D01*
X166702000Y-101219000D02*
X168783000Y-101219000D01*
X166702000Y-84201000D02*
X166702000Y-82931000D01*
X166702000Y-101219000D02*
X166702000Y-99949000D01*
X166702000Y-84201000D02*
X168783000Y-84201000D01*
X169777500Y-101219000D02*
X170434000Y-100562500D01*
X168783000Y-84201000D02*
X169777500Y-84201000D01*
%TO.N,GND*%
X172974000Y-102637500D02*
X170434000Y-102637500D01*
X178308000Y-85619500D02*
X175514000Y-85619500D01*
X172974000Y-85619500D02*
X170434000Y-85619500D01*
X168783000Y-102489000D02*
X170285500Y-102489000D01*
X170285500Y-102489000D02*
X170434000Y-102637500D01*
X166702000Y-93599000D02*
X168783000Y-93599000D01*
X178054000Y-102637500D02*
X175535500Y-102637500D01*
X168783000Y-85471000D02*
X170285500Y-85471000D01*
X172995500Y-102659000D02*
X172974000Y-102637500D01*
X170285500Y-85471000D02*
X170434000Y-85619500D01*
X175535500Y-102637500D02*
X175514000Y-102659000D01*
X175514000Y-85619500D02*
X172974000Y-85619500D01*
X166702000Y-85471000D02*
X168783000Y-85471000D01*
X166702000Y-102489000D02*
X168783000Y-102489000D01*
X175514000Y-102659000D02*
X172995500Y-102659000D01*
X166702000Y-76581000D02*
X168783000Y-76581000D01*
%TO.N,+5VP*%
X157402000Y-98679000D02*
X155067000Y-98679000D01*
X157402000Y-81661000D02*
X155321000Y-81661000D01*
D23*
%TO.N,GNDPWR*%
X141222000Y-98298000D02*
X139192000Y-98298000D01*
X139192000Y-98298000D02*
X138430000Y-98298000D01*
D22*
X157402000Y-102489000D02*
X155067000Y-102489000D01*
X153310500Y-85471000D02*
X153162000Y-85619500D01*
D23*
X141222000Y-81280000D02*
X138684000Y-81280000D01*
D22*
X153310500Y-102489000D02*
X153162000Y-102637500D01*
X157402000Y-85471000D02*
X155067000Y-85471000D01*
X155067000Y-85471000D02*
X153310500Y-85471000D01*
X155067000Y-102489000D02*
X153310500Y-102489000D01*
%TO.N,Net-(C4-Pad1)*%
X153648500Y-91418500D02*
X153162000Y-91418500D01*
X153162000Y-91418500D02*
X150405500Y-91418500D01*
X157402000Y-93599000D02*
X155829000Y-93599000D01*
X155829000Y-93599000D02*
X153648500Y-91418500D01*
X150405500Y-91418500D02*
X150368000Y-91456000D01*
%TO.N,Net-(C4-Pad2)*%
X154537500Y-94869000D02*
X153162000Y-93493500D01*
X157402000Y-94869000D02*
X154537500Y-94869000D01*
%TO.N,Net-(C5-Pad1)*%
X157402000Y-96139000D02*
X153310500Y-96139000D01*
X153310500Y-96139000D02*
X153162000Y-95990500D01*
%TO.N,Net-(C5-Pad2)*%
X153818500Y-97409000D02*
X153162000Y-98065500D01*
X157402000Y-97409000D02*
X153818500Y-97409000D01*
%TO.N,Net-(C6-Pad1)*%
X153818500Y-101219000D02*
X153162000Y-100562500D01*
X157402000Y-101219000D02*
X153818500Y-101219000D01*
%TO.N,Net-(C11-Pad1)*%
X175535500Y-100562500D02*
X175514000Y-100584000D01*
X175514000Y-99314000D02*
X175514000Y-100584000D01*
X173609000Y-97409000D02*
X175514000Y-99314000D01*
X168783000Y-97409000D02*
X173609000Y-97409000D01*
X166702000Y-96139000D02*
X166702000Y-97409000D01*
X178054000Y-100562500D02*
X175535500Y-100562500D01*
X166702000Y-97409000D02*
X168783000Y-97409000D01*
%TO.N,/Voltage_IN_Measure*%
X172085000Y-98679000D02*
X172974000Y-99568000D01*
X166702000Y-98679000D02*
X172085000Y-98679000D01*
X172974000Y-99568000D02*
X172974000Y-100562500D01*
%TO.N,Net-(C14-Pad1)*%
X150405500Y-74400500D02*
X150368000Y-74438000D01*
X153902500Y-74400500D02*
X153162000Y-74400500D01*
X157402000Y-76581000D02*
X156083000Y-76581000D01*
X156083000Y-76581000D02*
X153902500Y-74400500D01*
X153162000Y-74400500D02*
X150405500Y-74400500D01*
%TO.N,Net-(C14-Pad2)*%
X154537500Y-77851000D02*
X157402000Y-77851000D01*
X153162000Y-76475500D02*
X154537500Y-77851000D01*
%TO.N,Net-(C15-Pad1)*%
X153310500Y-79121000D02*
X153162000Y-78972500D01*
X157402000Y-79121000D02*
X153310500Y-79121000D01*
%TO.N,Net-(C15-Pad2)*%
X153818500Y-80391000D02*
X153162000Y-81047500D01*
X157402000Y-80391000D02*
X153818500Y-80391000D01*
%TO.N,Net-(C16-Pad1)*%
X157402000Y-84201000D02*
X153818500Y-84201000D01*
X153818500Y-84201000D02*
X153162000Y-83544500D01*
%TO.N,Net-(C18-Pad1)*%
X178308000Y-83544500D02*
X175514000Y-83544500D01*
X174117000Y-80391000D02*
X175514000Y-81788000D01*
X175514000Y-81788000D02*
X175514000Y-83544500D01*
X168783000Y-80391000D02*
X174117000Y-80391000D01*
X166702000Y-79121000D02*
X166702000Y-80391000D01*
X166702000Y-80391000D02*
X168783000Y-80391000D01*
%TO.N,/Voltage_OUT_Measure*%
X172339000Y-81661000D02*
X166702000Y-81661000D01*
X172974000Y-83544500D02*
X172974000Y-82296000D01*
X172974000Y-82296000D02*
X172339000Y-81661000D01*
D23*
%TO.N,/Voltage_OUT*%
X138409000Y-75438000D02*
X137136000Y-74165000D01*
X141222000Y-75438000D02*
X138409000Y-75438000D01*
%TO.N,/Voltage_IN*%
X134136000Y-89178000D02*
X137414000Y-92456000D01*
X134136000Y-74165000D02*
X134136000Y-89178000D01*
X137414000Y-92456000D02*
X141222000Y-92456000D01*
D22*
%TO.N,Net-(R1-Pad2)*%
X148322000Y-93456000D02*
X147322000Y-92456000D01*
X147322000Y-98298000D02*
X147322000Y-92456000D01*
X150368000Y-93456000D02*
X148322000Y-93456000D01*
%TO.N,Net-(R6-Pad2)*%
X150368000Y-76438000D02*
X148322000Y-76438000D01*
X148322000Y-76438000D02*
X147322000Y-75438000D01*
X147322000Y-81280000D02*
X147322000Y-75438000D01*
%TD*%
M02*
